<svg xmlns="http://www.w3.org/2000/svg" width="153" height="62" viewBox="0 0 153 62"><g fill="none" fill-rule="evenodd"><path fill="#FFF" d="M75.564 9.573c-.498-.36-.95-.782-1.477-1.049-.874-.438-1.688.063-1.75 1-.074 1.16 1.057 1.958 2.086 1.448.512-.252.948-.607 1.14-1.4m40.33-2.235c.061.568.087 1.037.707 1.143.562.095.882-.086 1.21-.599.53-.824.518-1.943 1.416-2.553-.076-.68.574-1.1.575-1.815 0-.752.377-1.493.532-2.253.063-.308.075-.871-.06-.929-.342-.15-.818-.193-1.172-.075-.25.084-.437.475-.573.768-.174.375-.284.786-.398 1.186-.327 1.181-1.196 2.114-1.486 3.318-.112.477-.409.906-.609 1.362-.073.17-.114.355-.142.447M32.81.882c-.904-.17-1.65.305-2.455.441-1.015.171-1.988.35-2.961.73-1.29.497-2.674.739-3.994 1.154-1.235.39-2.44.852-3.652 1.304-.144.055-.24.247-.358.375.948.896.94.884 1.97.384.226-.106.511-.097.77-.135.336-.056.68-.07 1.004-.16 1.985-.547 3.853-1.509 5.965-1.609 1.02-.049 2.003-.269 2.942.497.712.583 1.631.03 1.708-.9.03-.338.041-.676.058-.961-.346-.387-.648-.728-.997-1.12M18.998 5.975c-.016-.082-.028-.164-.041-.247-.353-.044-.71-.142-1.058-.117-.724.056-1.464.094-2.16.28-1.695.457-3.361 1.028-5.057 1.49-1.5.414-3.034.715-4.537 1.116-1.773.471-3.533.979-5.289 1.51-.783.239-1.02.713-.747 1.269.245.5.99.766 1.486.432 1.34-.898 2.9-1.126 4.398-1.544 1.403-.391 2.824-.719 4.218-1.14 1.98-.588 3.938-1.233 5.903-1.857.512-.162 1.24-.181 1.477-.529.368-.55.778-.715 1.407-.663m-4.283 12.526c-.177-.26-.282-.35-.294-.452-.19-1.448-.413-2.9-.532-4.355-.096-1.145-.05-2.304-.095-3.457-.024-.61-.466-1.035-1.017-1.057-.465-.016-.834.422-.808 1.063.041.879.13 1.756.223 2.634.187 1.836.413 3.67.582 5.512.09.998-.257 1.456-1.163 1.844a280.924 280.924 0 0 0-5.452 2.395c-.352.157-.63.473-.909.691.632 1.359.88 1.41 2.026.73.691-.41 1.408-.83 2.17-1.06.757-.23 1.387-.613 2.039-1.025.488-.314.996-.733 1.714-.53.224 1.98-.114 3.94.172 5.892.1.678-.158 1.423.143 2.136.083.194.12.506.02.664-.217.338-.043.564.081.848.23.515.417 1.055.628 1.596.487-.11.887-.206 1.355-.312.18-.414.638-.965.511-1.278-.289-.713.038-1.583-.622-2.195-.15-.14-.138-.514-.116-.777.152-1.762-.305-3.467-.467-5.2a8.542 8.542 0 0 1-.036-1.501c.016-.243.128-.571.309-.69.987-.645 2.066-1.095 3.246-.68.798.281 1.388.106 1.985-.423l-.516-1.287c-1.818-.728-3.523-.78-5.177.274m46.987 19.57c.968-.31 2.074-.693 3.2-1.011.552-.157 1.146-.15 1.704-.289 1.814-.453 3.61-.958 5.425-1.404 1.849-.454 3.71-.857 5.584-1.291.469.788.6.845 1.502.622.928-.235 1.527-.815 1.855-1.77-.32-.434-.661-.895-1.001-1.35-.425-.07-.88-.278-1.242-.172-.54.156-1.027.374-1.63.409-.554.033-1.088.45-1.623.717-1.695.856-3.531 1.26-5.359 1.688-2.118.502-4.255.913-6.378 1.388-2.243.5-4.434 1.28-6.773 1.26-.532-.003-1.08-.03-1.598.07-.62.12-.786.521-.686 1.242.076.573.457.659.913.628.651-.04 1.31-.065 1.953-.174.352-.06.676-.286 1.017-.438.838.085 1.11.675 1.203 1.474.213 1.873.474 3.743.714 5.614.15 1.201.148 1.201-.89 1.79-.11 1.265-.09 1.24.913 2.062.213.172.323.599.315.906-.024 1.135-.151 2.265-.18 3.401-.009.43.25.868.214 1.29-.082.98-.27 1.951-.41 2.897.609.493 1.183.955 1.812 1.466.386-.6.646-1.177 1.057-1.595.524-.527.6-1.139.571-1.784-.028-.638-.108-1.265-.532-1.83a3.353 3.353 0 0 1-.62-1.444c-.197-1.234-.295-2.482-.415-3.727-.035-.397.033-.774.468-.97.835-.377 1.64-.85 2.506-1.122.81-.251 1.683-.273 2.248-1.064.097-.136.423-.13.645-.154 1.145-.12 2.29-.265 3.443-.32.524-.026.754-.275.93-.695.177-.421-.093-.635-.363-.871-.365-.324-.716-.665-1.09-1.021-.503.083-1.05.094-1.539.267-.892.316-1.713.861-2.624 1.067-1.463.338-2.723 1.121-4.104 1.638-.486.182-.722.13-.873-.336a3.109 3.109 0 0 1-.153-.677c-.184-2.022-.725-4.033-.11-6.388M29.263 48.323c.146.7.289 1.167.335 1.643.14 1.368.187 2.747.376 4.105.174 1.25.134 2.544.726 3.728.68 1.356 1.812 1.876 3.196 1.269 2.199-.965 4.101-2.351 5.669-4.192.492-.578 1-1.146 1.517-1.701.922-.985 1.203-2.293 1.743-3.467.32-.69.453-1.467.186-2.216-.934-.258-1.425.024-1.563 1.073-.086.667-.374 1.129-.804 1.57-.152.158-.325.36-.353.56-.215 1.539-1.494 2.272-2.446 3.226-.782.781-1.685 1.455-2.575 2.123-.513.384-1.074.734-1.667.97-1.023.414-1.42.163-1.53-.957-.22-2.222-.38-4.45-.57-6.677-.083-.996-.083-2.009-.58-2.925-.472-.874-.9-1.064-1.778-.67-.417.185-.969.403-1.128.757-.428.923-1.288 1.408-1.867 2.151-.83 1.076-1.557 2.23-2.328 3.351-.012-.01-.102-.047-.11-.097a4.641 4.641 0 0 1-.084-.687c-.07-1.913-.671-3.687-1.356-5.447-.26-.672-.736-.835-1.344-.865-.65-.033-.98.386-1.19.911-.173.427-.287.876-.408 1.323-.57 2.067-1.027 4.17-1.724 6.192-.55 1.605-1.17 3.24-2.51 4.429a1.65 1.65 0 0 0-.345.45c-.39.7-1.051 1.068-1.737 1.39-.505.237-.987.17-1.313-.341-.302-.477-.62-.953-.854-1.465-.253-.559-.395-1.17-.627-1.741-.364-.905-.33-.931.45-1.483 1.106-.786 2.347-1.406 3.145-2.583.545-.801 1.106-1.579 1.031-2.625-.042-.614-.045-1.231-.09-1.844-.141-1.912-1.86-3.276-3.737-3.06-2.737.314-3.47 2.46-3.698 4.683-.108 1.017-.069 2.12.219 3.087.374 1.237-.09 1.836-1.038 2.468-.955.64-1.448.682-2.321-.185-.558-.546-.953-.493-1.37.191-.662 1.084.008 2.369 1.277 2.418.61.02 1.226-.004 1.835-.036.182-.01.36-.105.531-.183.465-.213.907-.48 1.39-.624.164-.05.522.145.61.318a26.6 26.6 0 0 1 .95 2.18c.343.871.794 1.63 1.529 2.256 1.13.97 1.83 1.043 3.12.14.122-.086.292-.099.416-.181.512-.336 1.039-.645 1.51-1.03 1.605-1.312 2.27-3.251 3.109-5.03.579-1.226.888-2.63 1.051-3.984.108-.892.437-1.584.954-2.556.306.865.642 1.49.731 2.148.12.84.008 1.71.054 2.56.04.719.22 1.43.235 2.144.018 1.063-.071 2.13-.073 3.196-.001.684.51 1.3 1.131 1.416.404.073.775.027.905-.475.312-1.188.716-2.356.939-3.563.527-2.902 1.93-5.285 4.248-7.536m60.264-6.409c.613-.452.68-.929.272-1.514-.158-.227-.202-.57-.211-.863-.021-.52.233-1.18 0-1.53-.382-.57-.063-.998-.068-1.494-.019-1.366-.189-2.724-.24-4.09-.058-1.46-.03-2.918-.08-4.379-.032-1.03.006-1.19.957-1.578 1.328-.544 2.468-1.324 3.387-2.638.27.267.538.464.717.726.212.315.394.672.514 1.032.212.625.694.978 1.252 1.087 1.22.237 2.45.23 3.541-.506 1.14-.767 2.185-1.626 2.696-2.972.039-.094.137-.168.26-.307.334.282.675.527.961.82.648.654 1.423.88 2.314.798.836-.078 1.69-.04 2.311-.794.15-.185.482-.218.717-.34.225-.119.474-.23.64-.408.779-.842.878-.822 1.336.236.166.39.375.762.57 1.14.296.582.78.981 1.393 1.142.767.208 1.532.425 2.363.138 1.048-.362 2.128-.635 3.2-.92.69-.183 1.2-.565 1.614-1.157.697-1.008 1.454-1.972 2.271-3.074-.353-.525.302-1.701-1.087-1.992-.356.598-.584 1.34-1.081 1.745-1.17.958-1.95 2.34-3.439 2.973a7.34 7.34 0 0 1-2.636.563c-.388.013-.903-.162-1.15-.441-.604-.679-1.168-2.882-.776-3.834.11-.267.322-.527.555-.697.243-.173.587-.195.85-.346.485-.271 1.142-.489 1.364-.918.24-.463.439-.937.753-1.375.17-.243.116-.652.147-.987.086-.989-.39-1.861-.63-2.782a1.218 1.218 0 0 0-.329-.586c-1.34-1.229-2.96-.982-3.802.444-.64 1.077-.756 2.246-.826 3.45-.064 1.071-.067 2.168-.286 3.213-.324 1.53-1.365 2.5-2.798 3.1-1.206.503-2.217.297-2.87-.818-.736-1.252-1.257-2.594-.963-4.108.027-.132-.045-.287-.086-.427-.087-.319-.194-.627-.272-.95-.083-.354-.709-.81-1.222-.878-.493-.063-.716.28-.834.641-.074.227.04.514.079.77.228 1.464.81 2.916.101 4.4-.193.41-.446.81-.548 1.242-.264 1.115-1.073 1.876-1.95 2.295-1.74.827-2.3.943-2.853-1.218-.039-.149-.049-.306-.081-.457-.27-1.266-.068-2.525.096-3.782.095-.729.278-1.436-.205-2.115-.102-.142.001-.434.001-.653.012-1.151.053-2.304.019-3.453-.017-.548-.465-.924-.975-.95-.527-.018-.704.286-.82.768-.28 1.16-.613 2.307-.515 3.522.108 1.341.2 2.686.284 4.03.015.224.015.49-.082.683-.762 1.478-1.69 2.83-3.104 3.765-.195.129-.493.106-.824.17-.056-.579-.17-1.074-.144-1.563.07-1.497.206-2.988.291-4.483.042-.841 0-1.689.039-2.53.039-.744-.324-1.222-.874-1.653a4.424 4.424 0 0 1-.916-.975c-.688-1.016-1.322-1.773-2.846-1.603-2.575.29-4.193 1.778-5.448 3.769-1.092 1.729-1.331 3.76-1.366 5.772-.026 1.516.197 3.005 1.12 4.294.608.854 2.044 1.56 2.917 1.223 1.219-.473 2.6-.61 3.59-1.614.071-.077.198-.097.356-.169.912.952 1.685 1.876 1.58 3.383-.17 2.4-.133 4.816-.223 7.221-.04.91-.362 1.83-.266 2.714.168 1.546-.116 3.018-.323 4.522-.051.367.044.871.275 1.137.667.766 1.522.912 2.344.541.155-.735.286-1.342.442-2.085-.03-.033-.182-.19-.44-.463M54.442 17.587c-1.495 1.18-1.549 2.383-.25 3.798.17.186.35.483.326.705-.095.84-.197 1.691-.425 2.498-.447 1.554-1.699 2.55-2.731 3.693-.12.134-.312.216-.485.293-1.134.507-1.47.408-2.178-.662-.232-.35-.404-.741-.655-1.074-.587-.78-.384-1.456.095-2.228.841-1.358 1.624-2.742 2.08-4.318.47-1.614 1.16-3.158 1.393-4.846.157-1.138.554-2.264.012-3.4a.542.542 0 0 1-.02-.34c.374-1.354-.454-2.487-.9-3.583-.492-1.198-1.567-2.164-2.427-3.194-.356-.422-.863-.676-1.446-.552-.985.213-1.965.516-2.599 1.352-.975 1.292-1.497 2.781-1.467 4.41.031 1.884.12 3.765.608 5.608.208.775.162 1.613.341 2.398.466 2.023 1.049 4.018 1.479 6.047.203.95-.19 1.844-.916 2.492-.968.865-2.002 1.662-2.993 2.505a3.439 3.439 0 0 1-2.1.854c-.267.012-.706-.102-.792-.287-.484-1.016-1.175-1.966-.723-3.26.272-.77.281-1.66.26-2.495-.021-.79-.26-1.57-.368-2.358-.205-1.463-.734-1.948-2.281-1.9-.268-.61-.529-1.286-.86-1.924-.21-.397-.495-.995-.816-1.043-1.013-.16-2.15-.24-2.963.517-1.16 1.074-2.093 2.361-2.347 3.985-.217 1.36-.41 2.737-.455 4.116-.064 1.94.223 3.844 1.056 5.632.504 1.089 1.397 1.62 2.558 1.527 1.475-.121 2.653-.86 3.751-1.78.242-.2.526-.352.786-.52.526.551.95.996 1.37 1.441.77.822 1.46.946 2.427.445.2-.106.414-.222.632-.253 1.119-.155 2.023-.698 2.827-1.465a2.14 2.14 0 0 1 .662-.452c.45-.179.758-.448.972-.91a2.04 2.04 0 0 1 1.301-1.114c.415.57.901 1.08 1.202 1.682.585 1.176 1.659 1.378 2.76 1.574.18.033.4.056.557-.017 1.515-.738 3.005-1.535 3.925-3.028.72-1.165 1.722-2.204 1.809-3.679.056-.955.047-1.912.102-2.865.017-.32.054-.703.24-.937.565-.72 1.2-1.391 1.82-2.066.26-.285.532-.568.845-.786.445-.308.798-.139.919.401.053.226.084.458.08.69-.009 1.614-.04 3.228-.04 4.84 0 .962.013 1.927.545 2.795.116.19.189.428.211.65.117 1.234.806 2.035 1.916 2.595.753-.24 1.505-.534 2.285-.714.85-.2 1.386-.787 1.98-1.343.564-.528 1.193-.986 2.023-1.66.29.383.568.927 1 1.283 1.72 1.418 2.092 1.475 4.37 1.184.755-.096 1.413-.234 1.741-1.053.104-.25.442-.404.676-.598.18-.144.468-.248.526-.427.11-.336.21-.776.08-1.068-.157-.362-.582-.269-.916-.098-.441.227-.912.412-1.32.69-1.723 1.17-4.064.447-4.853-1.467-.312-.759-.289-1.498-.23-2.272.087-1.15.169-2.306.197-3.458a1.656 1.656 0 0 0-.315-.952c-.288-.388-.776-.627-1.226-.373-.53.297-1.002.76-.986 1.447.017 1.15.09 2.297.161 3.449.038.58.157 1.153-.424 1.576-.132.098-.153.34-.245.508-.785 1.429-1.955 2.41-3.5 2.908-.8.257-1.413-.078-1.502-.874-.213-1.944-.504-3.877-.15-5.854.247-1.363.214-2.774-.224-4.123-.096-.301-.323-.666-.586-.79-1.353-.646-3.387-.127-4.437 1.034-.403.45-.86.85-1.245 1.222-.604-.152-1.08-.277-1.51-.384M74.39 46.082c-.355.475-.74.855-.957 1.316-.202.424-.361.947-.3 1.397.16 1.204 1.167 2.037 2.382 2.131.254.018.51.045.909.08-.308.989-.477 1.939-.895 2.765-.505 1.01-1.185 1.94-1.865 2.848-.382.51-.951.87-1.375 1.353-.771.866-1.596 1.428-2.777.786-.027-.014-.075.01-.158.025-.655.663-.117 1.309.211 1.837.193.31.793.588 1.161.53 1.319-.209 2.387-.966 3.252-1.968.697-.807 1.365-1.652 1.932-2.557.478-.76 1.08-1.434 1.434-2.314.352-.868.416-1.737.55-2.629.056-.381.229-.845.511-1.073.425-.347.992-.52 1.666-.846.207.782.446 1.464.56 2.165.218 1.384.493 2.752 1.283 3.923.557.825 1.186 1.785 2.263 1.82.935.03 1.841.321 2.852.09a13.653 13.653 0 0 0 2.866-1.04c.73-.354 1.417-.8 2.151-1.222.545.697 1.081 1.302 1.942 1.206 1.317-.151 2.56-.473 3.22-1.838.104-.216.43-.323.736-.539.257.816.438 1.478.668 2.12.317.902 1.088 1.17 1.932.756 1.428-.705 2.108-1.955 2.474-3.41.625-2.483 1.181-4.983 1.809-7.461.183-.725.477-1.437 1.34-1.964.214.483.447.863.552 1.281.174.67.218 1.373.399 2.043.425 1.593.31 3.217.167 4.812-.057.635.014 1.1.297 1.615.232.415.541.753.995.55.343-.155.748-.507.83-.843.162-.7.164-1.446.173-2.175.02-1.924.02-3.847.542-5.721.205-.74.553-1.405 1.389-1.886.28.445.586.834.785 1.272.695 1.49.94 3.075.966 4.717.033 1.974 1.49 3.18 3.395 2.886.266-.043.55 0 .797-.081.875-.28 1.936-.109 2.53-1.104 1.497.861 2.425.069 3.168-1.11.223.08.376.111.5.19 2.282 1.42 4.566 1.03 6.8-.064 1.169-.574 1.132-.654 1.835.426.168.259.282.56.48.787.293.347.587.76.973.944 1.736.833 3.53.924 5.325.165.456-.19.928-.37 1.326-.646 1.312-.914 2.418-1.988 3.427-3.281 1.09-1.392 1.25-2.977 1.753-4.498.145-.444.083-.998-.02-1.472-.071-.335-.195-.803-.715-.77-.445.028-.442.42-.581.739-.614 1.393-.928 2.914-1.78 4.198-.318.474-.789.854-1.083 1.34-.927 1.516-2.314 2.344-3.987 2.672-.768.15-1.633.17-2.378-.036-.862-.236-1.226-1.08-1.483-1.925-.374-1.228-.188-1.582.967-2.147.814-.4 1.791-.56 2.342-1.393.684-1.043 1.476-2.015 1.526-3.38.05-1.387-.182-2.684-.931-3.837-.22-.34-.695-.654-1.09-.714-1.4-.197-2.96.746-3.57 2.048-.114.238-.164.555-.347.7-.553.443-.597 1.076-.653 1.667-.104 1.183-.084 2.38-.18 3.565-.045.564-.102 1.2-.386 1.66-.74 1.206-1.775 2.055-3.304 2.055-.19 0-.375.065-.568.092-.87.112-1.657-.122-2.583-.576.773-.77-.266-1.023-.384-1.667.512-.62.678-1.283.002-2.002-.176-.185-.207-.602-.163-.889.137-.91.243-1.847.547-2.702.263-.721.638-1.485 1.5-1.72.277.304.471.603.737.8.47.35 1.138.278 1.294-.205.203-.63.44-1.414.234-1.974-.242-.67-.873-1.29-1.783-1.2-1.145.109-2.235.42-2.815 1.504-.48.9-1.148 1.729-1.168 2.854-.011.61-.253 1.206-.348 1.813-.251 1.558-.481 3.12-.737 4.807-.62.36-1.351.874-2.154 1.224-.82.359-1.707.57-2.575.83-.934.272-1.763-.26-1.932-1.241-.056-.338-.07-.691-.096-1.037-.134-1.828-.725-3.532-1.477-5.178-.211-.463-.599-.895-1.008-1.207-1.344-1.01-1.459-.93-2.557.438-.454.569-.724 1.382-1.637 1.612-.12-.315-.186-.617-.336-.867-.273-.459-.53-.96-.916-1.313-.74-.672-1.517-.507-2.006.347-.112.193-.156.462-.317.59-1.01.809-1.208 2.032-1.587 3.138-.447 1.304-.749 2.658-1.103 3.994-.134.51-.29 1.02-.348 1.544-.107.94-.478 1.721-1.231 2.59-.512-1.757-.49-3.408-.737-4.756.38-.794.858-1.379.918-2.003.16-1.646-2.134-3.765-3.793-3.624-.149.01-.29.082-.435.138-1.864.68-2.997 2.163-3.676 3.883-.662 1.674-.875 3.507-.784 5.34.023.444-.14.826-.55.895-.781.134-1.3.678-1.928 1.048-.164.098-.337.216-.517.243-1.348.2-2.697.403-4.053.54-.296.027-.71-.139-.916-.362-.386-.408-.771-.887-.947-1.406-.307-.902-.456-1.856-.664-2.787-.283-1.251-.21-2.327 1.05-3.117.72-.449.697-1.407.139-2.036-.54-.613-1.172-.59-1.874.102-.57.555-1.051 1.232-1.688 1.686-.64.459-1.424.709-2.173 1.062-1.25-.752-2.532-1.453-3.385-2.781"/><path fill="#000" d="M133.419 45.371c.355-.06.645-.039.863-.156 1.58-.848 2.35-2.518 2.04-4.337-.109-.626-.472-.838-1.055-.557-.648.308-1.113.801-1.323 1.503-.159.549-.233 1.137-.478 1.643-.296.606-.238 1.167-.047 1.904m-36.233.488c-.162-.013-.315-.07-.45-.034-1.03.275-1.616 1.112-2.133 1.925-1.161 1.827-1.003 3.9-.866 5.94.017.228.204.599.365.632.296.054.69-.003.937-.169.338-.232.585-.597.857-.92 1-1.195 1.762-2.457 1.515-4.136-.156-1.052-.154-2.127-.225-3.238m-22.795.223c.852 1.328 2.135 2.029 3.383 2.78.75-.352 1.533-.602 2.173-1.06.637-.455 1.12-1.132 1.688-1.687.703-.691 1.335-.715 1.875-.102.559.63.58 1.586-.14 2.036-1.259.789-1.333 1.866-1.049 3.117.208.931.356 1.885.663 2.787.177.52.562.998.949 1.406.206.223.619.389.914.362 1.357-.137 2.706-.34 4.055-.54.179-.027.351-.145.515-.243.63-.37 1.148-.914 1.929-1.048.41-.069.573-.45.55-.895-.09-1.833.122-3.666.784-5.34.679-1.72 1.811-3.203 3.676-3.883.144-.056.287-.128.435-.138 1.66-.141 3.952 1.978 3.793 3.624-.06.624-.538 1.21-.919 2.003.25 1.348.226 3 .737 4.755.755-.868 1.125-1.65 1.231-2.59.059-.522.215-1.032.35-1.543.353-1.336.655-2.69 1.103-3.994.378-1.106.577-2.33 1.586-3.138.16-.128.205-.397.318-.59.488-.854 1.264-1.019 2.006-.347.384.353.642.854.914 1.313.151.25.218.552.337.867.914-.23 1.183-1.043 1.636-1.612 1.099-1.368 1.215-1.448 2.559-.438.408.312.796.744 1.007 1.207.753 1.646 1.342 3.35 1.477 5.178.026.346.04.699.095 1.037.17.981.998 1.513 1.932 1.24.869-.259 1.756-.47 2.576-.83.802-.349 1.533-.863 2.155-1.223.254-1.687.484-3.25.737-4.807.095-.607.335-1.205.346-1.813.021-1.125.689-1.954 1.17-2.854.58-1.084 1.669-1.395 2.814-1.503.91-.09 1.541.529 1.783 1.2.205.56-.031 1.344-.235 1.973-.156.483-.824.554-1.293.206-.266-.198-.46-.497-.737-.8-.862.234-1.238.998-1.5 1.719-.304.855-.41 1.792-.546 2.702-.044.287-.014.704.163.889.675.719.509 1.381-.002 2.002.117.644 1.156.897.383 1.667.926.454 1.713.688 2.583.575.192-.026.378-.09.568-.09 1.529 0 2.564-.85 3.304-2.056.283-.46.342-1.096.385-1.66.097-1.185.077-2.382.182-3.565.054-.59.1-1.224.652-1.667.183-.145.233-.462.346-.7.612-1.302 2.17-2.245 3.57-2.048.396.06.872.373 1.09.714.75 1.153.983 2.45.931 3.838-.05 1.364-.84 2.336-1.525 3.38-.55.832-1.528.993-2.342 1.392-1.155.565-1.341.919-.967 2.147.257.846.622 1.689 1.483 1.925.745.206 1.61.186 2.379.036 1.672-.328 3.06-1.156 3.986-2.672.294-.486.765-.866 1.083-1.34.852-1.284 1.167-2.805 1.78-4.199.14-.317.136-.71.58-.738.521-.033.645.435.717.77.101.474.165 1.028.019 1.472-.502 1.521-.662 3.106-1.753 4.498-1.008 1.293-2.115 2.367-3.428 3.28-.397.276-.87.458-1.324.647-1.796.76-3.59.668-5.327-.165-.386-.186-.678-.597-.972-.944-.198-.227-.312-.528-.48-.787-.703-1.08-.666-1-1.836-.426-2.232 1.094-4.517 1.484-6.798.065-.125-.08-.278-.11-.5-.191-.744 1.179-1.671 1.971-3.168 1.11-.596.995-1.656.824-2.53 1.104-.248.081-.533.038-.799.081-1.904.293-3.362-.912-3.395-2.886-.024-1.642-.27-3.227-.965-4.717-.199-.438-.505-.827-.786-1.272-.835.48-1.182 1.146-1.389 1.886-.52 1.874-.52 3.797-.541 5.72-.009.73-.01 1.476-.174 2.176-.08.336-.486.688-.83.843-.453.203-.763-.135-.994-.55-.283-.516-.353-.98-.297-1.615.144-1.595.258-3.219-.168-4.812-.18-.67-.223-1.372-.399-2.043-.104-.418-.338-.798-.551-1.28-.863.526-1.157 1.238-1.34 1.963-.628 2.478-1.185 4.978-1.809 7.46-.366 1.456-1.047 2.706-2.475 3.411-.843.413-1.615.146-1.93-.756-.23-.642-.412-1.304-.668-2.12-.307.216-.632.323-.737.539-.66 1.365-1.903 1.687-3.22 1.838-.86.096-1.398-.509-1.942-1.206-.733.421-1.42.868-2.151 1.222-.916.446-1.848.798-2.866 1.04-1.011.231-1.917-.06-2.853-.09-1.076-.035-1.705-.995-2.262-1.82-.79-1.17-1.065-2.54-1.282-3.923-.115-.7-.355-1.383-.561-2.165-.674.326-1.24.5-1.666.846-.282.228-.455.692-.511 1.073-.133.892-.198 1.761-.55 2.63-.353.88-.956 1.552-1.435 2.313-.566.905-1.234 1.75-1.93 2.557-.865 1.002-1.934 1.76-3.253 1.968-.368.058-.969-.22-1.16-.53-.33-.528-.868-1.174-.212-1.837.083-.015.131-.039.158-.025 1.181.642 2.006.08 2.777-.786.424-.483.994-.844 1.375-1.353.68-.908 1.36-1.837 1.865-2.848.418-.826.587-1.776.895-2.765-.398-.035-.656-.062-.909-.08-1.216-.094-2.222-.927-2.383-2.13-.06-.45.099-.974.3-1.398.218-.46.603-.841.959-1.316M30.59 30.644c1.363-.082 1.363-.084 2.36-.78.122-.084.255-.153.385-.228 1.195-.708 1.962-1.724 1.913-3.137-.043-1.294-.273-2.585-.427-3.926-.674.037-.926-.356-1.048-.872-.145-.633-.258-1.277-.424-1.904-.104-.391-.096-.91-.639-.989-.59-.085-1.22.015-1.562.522-.818 1.21-1.47 2.504-1.496 4.03-.014.725-.12 1.45-.179 2.175-.148 1.81.36 3.469 1.116 5.109m15.941-8.06c.25-.164.341-.19.374-.251.759-1.352 1.538-2.7 1.932-4.223.144-.556.299-1.124.558-1.632.437-.852.348-1.758.397-2.65.033-.611-.122-1.254.019-1.829.228-.945.014-1.733-.476-2.511-.49-.776-.922-1.585-1.432-2.345-.383-.572-.993-.747-1.5-.379-.635.464-1.23.971-1.52 1.798-.605 1.746-.4 3.49-.127 5.238.214 1.401.505 2.791.787 4.177.306 1.502.64 2.998.988 4.607m7.912-4.997c.43.107.906.232 1.51.384.385-.372.842-.772 1.246-1.222 1.049-1.16 3.083-1.68 4.437-1.034.262.124.489.489.584.79.439 1.349.471 2.76.226 4.123-.355 1.977-.064 3.91.148 5.854.09.796.703 1.13 1.502.874 1.546-.499 2.717-1.48 3.5-2.909.093-.167.115-.41.246-.507.58-.423.461-.996.424-1.577a73.137 73.137 0 0 1-.161-3.448c-.015-.687.455-1.149.986-1.447.45-.254.938-.015 1.226.373.191.26.32.632.314.951a66.628 66.628 0 0 1-.197 3.46c-.057.773-.08 1.512.23 2.271.79 1.915 3.131 2.637 4.854 1.466.408-.277.88-.462 1.32-.688.333-.171.76-.265.917.098.13.291.028.73-.082 1.067-.057.179-.345.283-.525.427-.235.194-.573.35-.676.597-.329.82-.986.959-1.74 1.054-2.28.291-2.65.234-4.371-1.184-.432-.356-.71-.9-1-1.283-.83.674-1.46 1.133-2.023 1.66-.594.556-1.13 1.143-1.98 1.342-.78.181-1.532.475-2.285.715-1.11-.56-1.799-1.36-1.916-2.595a1.587 1.587 0 0 0-.211-.65c-.533-.868-.545-1.833-.545-2.794 0-1.613.031-3.227.041-4.84a2.865 2.865 0 0 0-.082-.69c-.12-.541-.474-.71-.918-.402-.313.218-.585.5-.845.786-.62.674-1.255 1.346-1.821 2.066-.185.234-.222.617-.24.937-.054.953-.045 1.91-.1 2.865-.089 1.475-1.09 2.514-1.81 3.679-.92 1.494-2.41 2.29-3.926 3.028-.157.073-.376.05-.556.017-1.102-.197-2.175-.398-2.76-1.574-.3-.603-.787-1.112-1.201-1.682-.63.19-1.058.59-1.302 1.114-.215.462-.522.73-.972.91a2.11 2.11 0 0 0-.661.453c-.805.766-1.71 1.31-2.828 1.464-.219.03-.432.147-.632.252-.967.502-1.657.377-2.427-.443-.42-.446-.845-.89-1.37-1.442-.26.169-.545.319-.785.52-1.098.92-2.277 1.66-3.752 1.78-1.161.093-2.054-.439-2.558-1.526-.832-1.79-1.12-3.693-1.057-5.633.046-1.379.238-2.756.456-4.116.253-1.624 1.187-2.91 2.346-3.985.814-.758 1.952-.678 2.964-.517.32.049.606.646.815 1.043.332.637.593 1.314.86 1.924 1.548-.048 2.077.437 2.282 1.9.108.787.347 1.568.367 2.358.022.835.013 1.725-.26 2.495-.452 1.293.24 2.243.723 3.26.087.185.526.3.793.287a3.439 3.439 0 0 0 2.1-.854c.99-.843 2.025-1.64 2.993-2.506.726-.647 1.119-1.541.915-2.49-.43-2.03-1.011-4.025-1.478-6.048-.18-.784-.133-1.623-.34-2.398-.489-1.843-.578-3.724-.61-5.608-.03-1.629.493-3.118 1.468-4.41.633-.836 1.615-1.139 2.598-1.352.584-.124 1.091.13 1.446.552.86 1.03 1.936 1.996 2.427 3.194.447 1.096 1.275 2.229.9 3.583a.536.536 0 0 0 .022.34c.541 1.136.143 2.262-.013 3.4-.233 1.688-.923 3.232-1.392 4.845-.457 1.577-1.24 2.96-2.081 4.319-.479.772-.682 1.448-.094 2.229.25.332.422.723.653 1.073.708 1.07 1.044 1.17 2.179.662.173-.077.364-.158.485-.293 1.032-1.143 2.284-2.14 2.732-3.693.228-.807.33-1.659.423-2.498.025-.222-.154-.52-.325-.705-1.298-1.415-1.246-2.617.25-3.798"/><path fill="#000" d="M112.04 16.342c1.43-.787 1.711-1.682.935-2.79-.967.68-.801 1.702-.936 2.79m-24.69 1.946c-.181-.864-.444-1.978-.635-3.11-.286-1.685-1.212-1.902-2.813-1.448-.038.01-.069.039-.103.051-1.957.805-3.037 2.368-3.667 4.302-.552 1.692-.521 3.39-.115 5.113.308 1.322 1.182 1.88 2.462 1.436a8.757 8.757 0 0 0 1.374-.594c2.133-1.185 3.302-2.992 3.498-5.75m2.176 23.626c.258.273.41.43.439.463-.155.743-.286 1.35-.44 2.085-.822.37-1.678.225-2.344-.542-.232-.265-.327-.77-.276-1.136.207-1.504.491-2.976.322-4.523-.095-.883.227-1.804.266-2.713.091-2.405.054-4.82.224-7.22.105-1.508-.668-2.432-1.58-3.384-.158.072-.285.092-.357.169-.989 1.005-2.37 1.141-3.59 1.614-.872.337-2.309-.369-2.917-1.223-.922-1.289-1.145-2.778-1.119-4.293.035-2.013.274-4.045 1.366-5.773 1.255-1.991 2.873-3.48 5.448-3.768 1.524-.17 2.157.586 2.846 1.602.245.367.571.701.917.976.55.43.912.908.873 1.652-.04.841.003 1.688-.04 2.53-.084 1.495-.22 2.986-.29 4.483-.025.489.087.984.144 1.563.331-.064.629-.041.824-.17 1.413-.935 2.342-2.287 3.104-3.765.097-.193.097-.46.082-.683-.083-1.345-.176-2.69-.284-4.03-.098-1.215.235-2.362.515-3.522.116-.482.293-.786.82-.767.51.025.957.4.975.949.034 1.15-.007 2.302-.02 3.453 0 .22-.102.51 0 .653.483.679.3 1.386.206 2.115-.165 1.257-.368 2.516-.097 3.782.032.151.042.308.081.457.554 2.161 1.112 2.045 2.852 1.217.878-.418 1.687-1.178 1.951-2.294.102-.433.355-.831.548-1.241.708-1.486.127-2.937-.101-4.4-.04-.257-.153-.543-.079-.77.117-.362.341-.705.834-.642.513.067 1.14.524 1.222.878.078.323.185.631.272.95.04.14.113.295.086.427-.294 1.514.227 2.856.963 4.108.653 1.115 1.664 1.32 2.87.818 1.434-.6 2.474-1.571 2.798-3.1.218-1.045.222-2.14.286-3.212.07-1.204.186-2.374.826-3.452.841-1.425 2.463-1.671 3.802-.443.158.145.277.374.329.586.24.92.716 1.793.63 2.782-.031.335.023.744-.147.986-.314.439-.513.914-.753 1.376-.221.429-.88.647-1.364.918-.262.15-.607.173-.85.346-.233.17-.445.43-.555.697-.392.951.172 3.155.776 3.834.247.279.762.454 1.15.442a7.34 7.34 0 0 0 2.636-.565c1.489-.631 2.269-2.014 3.44-2.972.497-.405.723-1.147 1.08-1.745 1.39.291.734 1.466 1.088 1.992-.818 1.102-1.576 2.066-2.272 3.073-.414.593-.923.975-1.614 1.157-1.072.286-2.152.559-3.2.921-.831.287-1.596.07-2.363-.138-.613-.16-1.096-.56-1.394-1.143-.194-.377-.403-.75-.57-1.139-.457-1.058-.556-1.078-1.335-.236-.166.177-.414.29-.64.407-.235.122-.567.155-.717.341-.621.753-1.475.717-2.31.794-.892.082-1.667-.144-2.315-.799-.286-.292-.627-.537-.962-.818-.122.138-.22.211-.26.305-.51 1.347-1.554 2.207-2.695 2.973-1.09.735-2.32.742-3.54.506-.559-.11-1.041-.462-1.253-1.087a4.342 4.342 0 0 0-.514-1.032c-.178-.262-.448-.46-.717-.726-.92 1.314-2.058 2.094-3.387 2.638-.951.389-.989.548-.956 1.579.049 1.46.02 2.918.078 4.377.052 1.367.222 2.725.242 4.09.004.497-.315.925.067 1.495.233.35-.021 1.01 0 1.53.009.294.053.636.21.864.41.584.342 1.06-.271 1.513M9.344 52.78c.294-.1.635-.133.859-.31.658-.52 1.262-1.105 1.896-1.649 1.013-.867.863-1.962.589-3.07-.204-.819-.953-.954-1.612-1.084-.566-.11-.948.23-1.275.747-.675 1.072-.75 2.22-.654 3.414.046.564.112 1.123.197 1.951m19.918-4.456c-2.318 2.25-3.721 4.634-4.249 7.536-.222 1.207-.626 2.375-.938 3.563-.13.502-.501.548-.905.474-.621-.115-1.132-.731-1.13-1.415 0-1.065.09-2.133.072-3.196-.015-.714-.195-1.426-.235-2.143-.046-.85.065-1.721-.054-2.56-.089-.658-.425-1.284-.73-2.15-.518.972-.847 1.664-.955 2.557-.163 1.355-.472 2.758-1.051 3.984-.84 1.778-1.504 3.718-3.11 5.03-.47.384-.997.695-1.51 1.03-.123.082-.293.095-.415.18-1.29.904-1.99.83-3.12-.14-.735-.626-1.186-1.384-1.529-2.254a26.616 26.616 0 0 0-.95-2.181c-.088-.174-.447-.369-.61-.318-.483.144-.925.411-1.39.623-.17.08-.349.173-.53.184-.61.032-1.226.056-1.835.036-1.27-.048-1.94-1.334-1.279-2.418.418-.684.813-.738 1.37-.191.874.867 1.367.825 2.322.185.947-.632 1.412-1.23 1.038-2.468-.288-.967-.327-2.07-.219-3.087.228-2.224.96-4.369 3.698-4.683 1.876-.216 3.596 1.148 3.736 3.06.046.614.049 1.23.091 1.843.075 1.048-.486 1.825-1.03 2.625-.799 1.178-2.04 1.798-3.146 2.584-.78.552-.815.578-.45 1.482.231.571.374 1.183.627 1.742.233.512.552.988.854 1.465.326.512.808.578 1.313.34.686-.321 1.347-.688 1.737-1.388.093-.167.203-.332.344-.451 1.341-1.188 1.96-2.824 2.511-4.429.697-2.022 1.155-4.125 1.724-6.192.12-.447.235-.896.407-1.322.21-.526.54-.945 1.19-.912.61.03 1.085.193 1.345.865.685 1.76 1.285 3.534 1.356 5.446.008.231.042.46.085.688.007.05.097.087.109.097.771-1.12 1.498-2.275 2.328-3.35.579-.744 1.44-1.229 1.867-2.152.16-.354.711-.572 1.128-.758.878-.392 1.306-.203 1.778.67.497.917.497 1.93.58 2.926.19 2.227.35 4.455.57 6.677.11 1.12.507 1.371 1.53.958.593-.236 1.154-.588 1.667-.97.89-.669 1.793-1.342 2.575-2.124.952-.954 2.23-1.687 2.445-3.226.029-.2.202-.402.354-.56.43-.441.718-.903.804-1.57.138-1.05.629-1.33 1.563-1.074.267.75.134 1.526-.186 2.217-.54 1.174-.821 2.483-1.743 3.467a54.271 54.271 0 0 0-1.517 1.7c-1.568 1.842-3.47 3.227-5.67 4.193-1.384.607-2.515.087-3.195-1.27-.592-1.183-.552-2.477-.726-3.727-.19-1.358-.237-2.738-.376-4.105-.046-.476-.189-.943-.335-1.643m32.44-10.253c-.617 2.355-.076 4.366.11 6.388.02.229.08.457.153.677.15.466.386.518.873.336 1.38-.518 2.64-1.3 4.103-1.638.911-.206 1.732-.751 2.624-1.067.49-.173 1.036-.184 1.538-.267.376.356.726.697 1.09 1.02.272.237.54.45.364.872-.176.42-.406.669-.93.695-1.153.055-2.298.2-3.443.32-.223.024-.548.018-.645.154-.565.791-1.438.813-2.249 1.064-.866.27-1.67.745-2.505 1.122-.435.196-.502.573-.468.97.12 1.245.219 2.493.416 3.727.08.508.311 1.037.62 1.445.423.564.503 1.19.532 1.83.028.644-.048 1.256-.572 1.783-.411.418-.67.995-1.058 1.595-.629-.511-1.203-.973-1.81-1.466.14-.946.328-1.918.408-2.897.037-.422-.221-.86-.212-1.29.028-1.136.155-2.266.178-3.401.01-.307-.102-.734-.314-.906-1.003-.821-1.023-.797-.914-2.062 1.039-.589 1.04-.589.89-1.79-.239-1.87-.5-3.74-.713-5.614-.092-.8-.364-1.39-1.203-1.474-.341.152-.665.377-1.017.438-.643.109-1.302.133-1.953.174-.456.03-.837-.055-.914-.628-.1-.72.066-1.122.688-1.242.517-.1 1.065-.073 1.597-.07 2.339.02 4.53-.76 6.773-1.26 2.123-.475 4.26-.886 6.379-1.388 1.827-.427 3.664-.832 5.358-1.688.535-.267 1.068-.684 1.623-.717.604-.035 1.09-.253 1.63-.41.363-.105.816.103 1.242.173.34.455.68.916 1.002 1.35-.33.955-.929 1.535-1.856 1.77-.902.223-1.033.166-1.502-.622-1.875.434-3.735.837-5.584 1.291-1.815.446-3.61.951-5.424 1.404-.559.139-1.153.132-1.704.289-1.127.318-2.233.7-3.201 1.01M14.715 18.501c1.654-1.054 3.36-1.002 5.177-.275.133.332.314.789.516 1.288-.597.53-1.187.705-1.985.423-1.18-.415-2.259.035-3.246.681-.181.118-.293.445-.309.688a8.542 8.542 0 0 0 .036 1.5c.161 1.735.619 3.44.467 5.202-.022.263-.035.637.116.778.66.611.333 1.481.622 2.193.127.314-.331.865-.51 1.278l-1.356.314c-.212-.542-.398-1.082-.628-1.597-.124-.283-.298-.51-.081-.848.1-.158.063-.47-.02-.663-.3-.713-.043-1.46-.143-2.138-.286-1.951.052-3.91-.172-5.891-.718-.203-1.226.216-1.714.53-.652.411-1.282.795-2.039 1.024-.762.231-1.479.65-2.17 1.06-1.146.682-1.394.63-2.026-.73.28-.217.557-.533.909-.69a280.954 280.954 0 0 1 5.452-2.396c.906-.386 1.253-.844 1.163-1.843-.17-1.843-.395-3.677-.582-5.512a44.956 44.956 0 0 1-.223-2.633c-.026-.642.343-1.08.808-1.065.55.024.993.449 1.017 1.058.045 1.153-.001 2.312.095 3.457.119 1.454.342 2.907.532 4.355.012.102.117.192.294.452m4.282-12.525c-.628-.053-1.038.112-1.406.662-.236.348-.965.366-1.477.529-1.965.624-3.924 1.27-5.903 1.858-1.394.42-2.814.748-4.218 1.139-1.498.417-3.059.646-4.398 1.544-.496.334-1.24.069-1.486-.432-.273-.557-.036-1.03.748-1.269a158.555 158.555 0 0 1 5.288-1.51c1.503-.4 3.036-.702 4.537-1.116 1.696-.462 3.362-1.032 5.057-1.49.696-.186 1.436-.225 2.16-.28.349-.024.704.074 1.058.116.012.084.024.165.04.249M32.81.882c.349.392.65.733.996 1.12-.017.285-.028.623-.058.961-.077.929-.996 1.483-1.709.9-.938-.765-1.92-.546-2.941-.496-2.112.1-3.98 1.06-5.965 1.609-.324.09-.668.104-1.003.158-.26.04-.545.03-.772.137-1.029.499-1.021.512-1.97-.385.12-.129.215-.32.359-.375 1.212-.452 2.417-.914 3.652-1.303 1.32-.416 2.705-.659 3.994-1.155.973-.38 1.946-.558 2.962-.73.803-.136 1.55-.61 2.454-.441m83.084 6.455c.028-.092.069-.278.143-.447.2-.456.495-.885.608-1.363.29-1.204 1.16-2.136 1.486-3.317.115-.4.224-.811.398-1.186.136-.293.323-.685.572-.768.355-.118.831-.075 1.174.075.134.057.122.622.06.929-.155.76-.533 1.502-.533 2.253-.001.715-.651 1.134-.576 1.815-.898.61-.885 1.729-1.415 2.553-.328.513-.648.694-1.21.599-.62-.107-.646-.575-.707-1.143M75.564 9.573c-.193.792-.63 1.147-1.141 1.4-1.03.509-2.16-.29-2.085-1.45.06-.936.875-1.437 1.749-.999.527.267.98.689 1.477 1.049"/><path fill="#FFF" d="M97.186 45.86c.072 1.11.068 2.186.225 3.236.247 1.68-.515 2.942-1.514 4.138-.273.321-.52.686-.858.919-.247.166-.641.224-.937.168-.161-.033-.347-.403-.365-.631-.138-2.041-.295-4.112.865-5.94.519-.813 1.103-1.65 2.134-1.925.135-.036.289.02.45.035m36.233-.489c-.19-.737-.25-1.298.047-1.904.245-.506.319-1.094.478-1.643.21-.702.675-1.195 1.323-1.503.583-.28.946-.069 1.054.557.312 1.819-.46 3.489-2.039 4.337-.218.117-.508.097-.863.156M46.53 22.583c-.349-1.609-.682-3.104-.988-4.605-.282-1.387-.573-2.777-.788-4.179-.272-1.747-.477-3.49.127-5.236.292-.828.886-1.334 1.521-1.799.507-.369 1.117-.193 1.5.379.51.76.943 1.569 1.432 2.344.49.78.704 1.567.476 2.512-.141.575.013 1.218-.02 1.83-.047.891.041 1.798-.397 2.65-.258.506-.412 1.075-.556 1.632-.395 1.523-1.174 2.87-1.933 4.222-.032.062-.124.087-.374.25m-15.94 8.061c-.758-1.64-1.265-3.298-1.117-5.109.059-.725.165-1.45.179-2.174.026-1.527.678-2.82 1.496-4.03.342-.508.973-.608 1.562-.523.543.078.535.598.639.99.166.626.279 1.27.424 1.903.122.516.374.91 1.048.872.154 1.34.384 2.632.427 3.926.049 1.413-.718 2.43-1.913 3.137-.13.075-.263.144-.385.227-.997.697-.997.699-2.36.78m56.76-12.355c-.196 2.758-1.365 4.565-3.497 5.75-.437.242-.905.43-1.376.595-1.28.443-2.153-.115-2.46-1.437-.407-1.722-.439-3.422.113-5.113.63-1.934 1.71-3.497 3.667-4.301.035-.013.066-.043.104-.052 1.6-.454 2.527-.238 2.813 1.449.19 1.13.453 2.245.635 3.109m24.691-1.946c.134-1.088-.032-2.11.935-2.79.776 1.108.494 2.003-.936 2.79M9.344 52.78c-.085-.83-.151-1.388-.197-1.952-.095-1.194-.021-2.342.654-3.414.327-.517.709-.857 1.275-.747.659.13 1.408.265 1.612 1.085.274 1.107.424 2.202-.589 3.07-.634.543-1.238 1.129-1.896 1.648-.224.177-.565.21-.859.31m133.479-19.338c.626-.588.626-.58 1.322-.448.22.045.446.049.67.078.77.097 1.538.202 2.308.303.515.065 1.023.17 1.538.178.84.013 1.053-.113 1.272-.898.253-.907.4-1.844.588-2.767.053-.252.017-.594.165-.75.65-.664.604-1.566.796-2.348.406-1.68.552-3.426.924-5.12.11-.504.116-.87-.18-1.256-.253-.334-.261-.66-.186-1.09.197-1.177-.704-2.373-1.79-2.324-.591.026-1.156-.139-1.681-.124-1.313.037-2.463-.766-3.792-.579-.484.072-1.01-.171-1.519-.236-.835-.102-1.682-.134-2.508-.284-1.278-.23-2.539-.54-3.816-.788-.634-.126-1.292-.147-1.922-.28-.953-.203-1.887-.475-2.837-.685-.597-.13-1.205-.204-1.785-.301-.22.397-.42.749-.607 1.108-.22.421-.532.83-.632 1.283-.633 2.773-1.214 5.557-1.825 8.337-.173.79-.484 1.565-.548 2.363-.09 1.126-.467 2.104-1.063 3.041-.383.603-.291.946.285 1.557.44.476.88.56 1.463.295.267-.123.536-.304.812-.325 1.269-.089 2.534-.085 3.74.433.173.075.37.124.557.126 1.07.01 2.126.208 3.219.016 1.597-.283 3.144.32 4.725.457.522.046.99.175 1.388.586.21.219.573.286.92.442"/><path fill="#000" d="M146.713 18.383c-.19.929-.355 1.72-.51 2.507-.255 1.313-.488 2.627-.754 3.935-.277 1.368-.584 2.732-.865 4.1-.033.152-.087.342-.025.466.138.27.026.344-.18.526-.424.37-.338 1.18.121 1.297.81.202 1.639.401 2.47.458 1.248.084 1.525-.2 1.774-1.419.057-.285.103-.596.249-.838.822-1.363.666-2.953 1.046-4.42.166-.641.147-1.334.207-2.002.055-.611.053-1.235.162-1.834.143-.763-.496-1.225-.574-1.943-1.033-.275-2.03-.544-3.121-.833m-10.64-1.861c-.387-.154-.65-.293-.924-.355a80.007 80.007 0 0 0-2.672-.528c-1.422-.254-1.715-.091-2.097 1.308-.38 1.406-.706 2.827-1.027 4.25-.202.92-.349 1.857-.527 2.782-.265 1.38-.544 2.752-.803 4.129-.177.933.187 1.362 1.139 1.324.682-.031 1.36-.178 2.035-.161.875.022 1.17-.575 1.435-1.204.108-.257.074-.576.125-.863.046-.25.095-.502.19-.733.38-.928.844-1.827 1.16-2.776.508-1.545.935-3.118 1.371-4.689.224-.803.393-1.625.595-2.484m1.636.323c-.118.373-.243.77-.363 1.171-.25.846-.497 1.695-.737 2.542-.383 1.371-.771 2.74-1.132 4.113-.162.62-.265 1.253-.39 1.88-.066.342-.066.715-.204 1.026-.347.775-.442 1.55-.204 2.366 1.165.128 2.368.1 3.472.42 1.2.348 2.382.064 3.513.372 1.16-2.851 3.296-9.164 3.276-12.576-.499-.304-5.93-1.305-7.23-1.314m5.114 16.597c-.346-.157-.71-.223-.92-.441-.398-.412-.866-.54-1.388-.588-1.58-.135-3.128-.739-4.725-.455-1.092.191-2.148-.007-3.218-.017a1.468 1.468 0 0 1-.56-.126c-1.204-.518-2.47-.522-3.739-.432-.274.02-.544.202-.811.324-.584.264-1.024.182-1.463-.295-.576-.612-.668-.954-.285-1.557.596-.937.973-1.914 1.062-3.041.064-.798.376-1.572.55-2.362.61-2.781 1.19-5.565 1.824-8.338.1-.453.413-.862.632-1.283.188-.359.388-.711.607-1.109.58.098 1.187.172 1.785.302.95.21 1.884.483 2.837.685.63.134 1.289.154 1.923.28 1.276.247 2.537.559 3.816.789.826.148 1.672.18 2.508.283.508.065 1.034.307 1.519.236 1.328-.187 2.478.616 3.79.579.526-.015 1.091.15 1.682.123 1.086-.048 1.987 1.148 1.79 2.326-.075.429-.067.754.187 1.089.295.387.289.752.179 1.257-.372 1.692-.518 3.438-.924 5.119-.191.783-.146 1.684-.795 2.348-.15.155-.113.498-.166.75-.187.923-.335 1.86-.588 2.767-.22.785-.432.912-1.272.897-.515-.008-1.024-.112-1.538-.177-.77-.102-1.538-.206-2.308-.303-.223-.03-.45-.033-.67-.077-.696-.133-.696-.141-1.321.447"/><path fill="#FFF" d="M137.709 16.845c1.3.009 6.732 1.01 7.23 1.314.022 3.412-2.115 9.724-3.275 12.576-1.131-.308-2.314-.024-3.514-.373-1.103-.319-2.306-.29-3.471-.42-.238-.814-.143-1.59.205-2.366.137-.31.137-.683.203-1.025.125-.627.228-1.26.39-1.88.36-1.373.748-2.742 1.132-4.113.24-.847.486-1.696.737-2.542.12-.401.246-.798.363-1.171"/><path fill="#F7D0D0" d="M136.072 16.522c-.201.859-.37 1.682-.594 2.485-.437 1.57-.862 3.142-1.37 4.689-.317.948-.782 1.848-1.161 2.774a3.704 3.704 0 0 0-.19.733c-.051.287-.017.607-.125.863-.266.63-.56 1.228-1.435 1.204-.674-.016-1.353.13-2.035.161-.951.039-1.316-.39-1.14-1.324.26-1.376.539-2.75.803-4.128.179-.925.326-1.862.527-2.783.322-1.422.647-2.843 1.029-4.25.381-1.399.674-1.562 2.096-1.307.892.162 1.785.336 2.673.528.273.063.536.202.922.355"/><path fill="#FBF1ED" d="M146.713 18.383c1.09.289 2.088.558 3.12.833.08.718.718 1.18.575 1.943-.109.6-.107 1.223-.162 1.834-.06.668-.041 1.36-.207 2.003-.38 1.466-.224 3.056-1.046 4.42-.146.241-.192.552-.25.837-.248 1.22-.525 1.503-1.772 1.42-.832-.058-1.662-.257-2.47-.459-.46-.116-.546-.926-.122-1.297.206-.182.318-.256.18-.526-.062-.124-.008-.314.025-.467.28-1.367.588-2.73.865-4.1.266-1.307.499-2.621.754-3.934.155-.787.32-1.578.51-2.507"/></g></svg>