<svg xmlns="http://www.w3.org/2000/svg" width="179" height="75" viewBox="0 0 179 75"><g fill="none" fill-rule="evenodd"><path fill="#000" d="M119.332 47.279c-.977 1.227-1.212 2.658-1.2 4.183 1.486-.174 2.76-1.765 2.579-3.137-.13-1.004-.267-1.105-1.379-1.046m-17.384.34c.074.007.147.01.226.018.387-.973.99-1.923 1.1-2.924.124-1.148.963-2.171.576-3.387.48-.624.226-1.297.196-1.979-.031-.772-.338-1.26-.93-1.71-1.151-.868-1.98-.622-2.332.763a1.352 1.352 0 0 0-.051.392c.017.984-.026 1.977.085 2.953.145 1.3.392 2.592.632 3.879.124.672.329 1.33.498 1.995m-13.285 3.332c.555-1.136.54-2.19-.052-3.265-.217-.395-.472-.521-.865-.497-.963.057-1.684.53-2.222 1.305-.851 1.227-1.073 2.634-1.065 4.06.004 1.113.008 2.253.501 3.304.208.44.686.848 1.045.753.934-.242 1.872-.61 2.385-1.445.797-1.298 1.325-2.697.273-4.215m-26.365 3.052c.148-.733-.603-1.988-1.247-2.284-.122-.056-.273-.154-.37-.12-.768.28-1.714.398-2.247.925-.997.973-1.87 2.102-2.073 3.596-.2 1.487-.268 2.97.126 4.415.43 1.562 1.584 1.995 3.058 1.252.372-.192.728-.44 1.12-.59 1.394-.539 1.525-1.896 1.876-3.026.212-.67-.014-1.48-.065-2.225-.045-.648-.118-1.295-.178-1.943m3.464 7.329c1.424-.19 1.835-1.288 2.333-2.325.479-.999.472-2.079.625-3.132.03-.231-.104-.517-.23-.74-.472-.84-.874-1.697-.655-2.691.104-.46.282-.903.416-1.316 1.196.04 1.691.472 1.96 1.56.07.28.13.589.291.81.448.626 1.062.732 1.705.34.34-.204.675-.42.991-.656.838-.62 1.133-1.485 1.117-2.49-.009-.294-.02-.606.065-.88.218-.732 1.329-1.055 1.894-.56.107.095.177.284.194.435.096.85.148 1.705-.173 2.52-.486 1.222-.308 2.472-.174 3.719.052.49.243.966.278 1.457.047.608.387 1.04.716 1.497.243.342.556.433.955.263.204-.086.437-.184.648-.169 1.403.114 2.484-.498 3.495-1.381.31-.272.792-.348 1.288-.553.003.024.03-.115-.019-.217-.656-1.335-.607-2.785-.672-4.208-.08-1.662.138-3.287.937-4.779a4.17 4.17 0 0 1 .777-.999c.6-.581 1.152-1.205 2-1.52 1.315-.49 2.591-.196 3.434.934.134.184.235.404.398.557.813.758.904 1.812.852 2.746-.104 1.921.23 3.732.76 5.55.209.723.435 1.407.826 2.06.338.57.789.806 1.394.676.613-.13 1.194-.367 1.794-.547.307-.09.716-.053.915-.243.526-.492.966-1.076 1.422-1.631.076-.096.059-.309.146-.356 1.433-.8 1.287-2.517 2.142-3.652.151-.2.161-.585.104-.857-.372-1.896-.824-3.776-1.165-5.675-.294-1.646-.628-3.307-.66-4.971-.022-1.18-.017-2.445.678-3.552.622-.986 1.43-1.48 2.558-1.288 1.351.23 3.191 1.354 3.586 3.044.245 1.045.367 2.169.253 3.226-.169 1.566-.468 3.14-.942 4.642-.53 1.67-1.13 3.333-1.951 4.903-.294.564-.338 1.151-.1 1.809.422 1.137.696 2.321 1.065 3.479.223.69.708 1.205 1.346 1.525 1.347.673 2.689.383 4.023-.1.367-.601.81-1.17 1.088-1.813.2-.47.209-1.028.249-1.55.039-.482-.14-.892-.539-1.214-1.063-.866-1.385-2.133-1.702-3.364-.188-.728.612-1.598 1.375-1.653.448-.033.74.176.935.589.46.981.982 1.936 1.416 2.926.203.476.485.758.984.86.973.207 1.942.39 3.02.125.047-.406.104-.79.134-1.176.08-.98-.005-2.003.256-2.934.293-1.04.64-2.16 1.568-2.868 1.012-.776 1.993-.867 2.82-.186 1.012.834 1.575 1.9 1.702 3.208.08.899.095 1.781-.395 2.586-.184.308-.33.677-.602.887-.877.69-1.67 1.51-2.77 1.875-.456.147-.572.488-.61.915-.08.867.288 1.605.66 2.338.203.412.476.79.731 1.174.395.587 1.024.752 1.634.368 1.677-1.05 2.932-2.463 3.563-4.356.351-1.055.59-2.145.889-3.218.295-1.044.629-2.08.894-3.132.21-.82.804-1.356 1.33-1.938.421-.468 1.042-.436 1.482.047 1.138 1.249 1.636 2.755 1.719 4.416.012.31.03.62.052 1.019.9-.29 1.15-.956 1.355-1.588.165-.518.38-.947.798-1.314.364-.32.631-.756.938-1.135.522-.637.866-.708 1.621-.402 1.564.628 2.207 1.925 2.472 3.449.158.906.233 1.831.265 2.749.03.88.298 1.685.62 2.474.342.84 1.85 1.606 2.783 1.444.621-.11 1.273-.207 1.824-.474.449-.217.766-.687 1.153-1.033.633-.56 1.14-1.18 1.202-2.073.003-.118.078-.283.173-.338.913-.525.774-1.462.92-2.284.078-.45.158-.9.219-1.353.039-.257.081-.523.055-.78-.062-.614-.273-1.24-.204-1.836.053-.472.391-.941.69-1.347.165-.22.486-.16.662.134.165.273.342.541.586.925v1.091c0 .099.035.204.008.297-.24.89-.03 1.781-.037 2.671-.016 1.22-.423 2.395-.848 3.55-.583 1.58-1.578 2.884-2.857 3.902-.696.549-1.652.84-2.538 1.05-.647.152-1.376-.013-2.07-.041-1.709-.071-2.582-1.304-3.484-2.492-.053-.074-.07-.183-.087-.278-.114-.61-.244-1.22-.334-1.833-.183-1.205-.399-2.406-.486-3.615-.054-.675-.31-1.194-.744-1.773-.574.624-1.176 1.15-1.475 1.95-.141.386-.484.696-.663 1.073-.655 1.39-1.284 2.794-1.923 4.193-.189.422-.316.885-.577 1.255-.208.296-.555.639-.873.679-.447.057-.907-.165-1.024-.73-.064-.318-.278-.657-.217-.939.39-1.8-.058-3.66.446-5.444.065-.231-.021-.521-.094-.767-.167-.567-.367-1.122-.591-1.788-.39.413-.631.806-.76 1.319-.445 1.687-.882 3.379-1.422 5.039-.642 1.965-1.66 3.74-3.391 4.946-.729.507-1.65.85-2.527 1.002-.721.122-1.382-.413-1.928-.906-.74-.672-1.321-1.463-1.633-2.425-.261-.806-.54-1.607-.77-2.421-.095-.32-.217-.575-.568-.581-1.087-.017-2.171-.007-3.34-.007-.027.428.004.89-.081 1.325-.157.803-.38 1.592-.583 2.387-.156.601-.746.81-1.164 1.142-.334.267-.83.36-1.268.463a9.517 9.517 0 0 1-1.55.248c-.428.032-.861-.059-1.29-.047-1.607.043-2.776-.82-3.667-1.983-.52-.68-.724-1.602-1.066-2.416-.118-.284-.23-.573-.437-1.078-.39.602-.62 1.015-.905 1.388-.518.68-.952 1.49-1.62 1.969-1.273.906-2.602 1.752-4.265 1.886-.974.077-1.839-.225-2.69-.535-.373-.137-.633-.693-.855-1.106-.338-.625-.602-1.293-.95-2.059-.322.364-.53.647-.787.878-1.003.92-2.215 1.397-3.552 1.575-.443.058-.61-.01-1.712-.65-.342.479-.66 1.007-1.069 1.447-.224.239-.668.266-.912.498-1.088 1.048-2.574 1.034-3.894 1.366-1.112.275-2.653-.936-3.131-2.186-.253-.67-.395-1.388-.583-2.084-.138-.503-.269-1.01-.433-1.63-.627.227-1.157.46-1.708.604-.542.144-1.108.193-1.68.286-.11.73-.192 1.41-.322 2.08-.103.54-.256 1.066-.395 1.599-.106.377-.137.804-.344 1.117-.832 1.263-1.862 2.317-3.425 2.66a1.87 1.87 0 0 1-1.964-.84c-.294-.469-.559-.955-.865-1.492-.18.151-.307.212-.363.314-.592 1.07-1.634 1.535-2.698 1.887-.868.287-1.798.343-2.74.185-1.434-.244-2.19-1.187-2.602-2.429a11.366 11.366 0 0 1-.545-4.167c.058-1.322.355-2.62 1.031-3.789.395-.677.743-1.435 1.299-1.955.743-.699 1.442-1.54 2.58-1.715.7-.107 1.32-.44 2.11-.111 1.342.554 2.016 1.518 2.302 2.856.07.343.205.672.3 1.008.108.377.264.752.292 1.137.057.806.003 1.62.072 2.427.043.554.193 1.106.34 1.645.235.848.29 1.764.941 2.505m46.488-41.385c-.084.04-.165.083-.249.126.398.303.552.6.161.89-.042.031-.065.12-.065.182-.008.391.987 1.518 1.413 1.614.96.222 1.901.077 2.852-.09.792-.141 1.317-.48 1.517-1.323.126-.52.146-.975-.1-1.429-.397-.727-.857-1.397-1.521-1.932-.59-.467-1.089-1.04-1.645-1.554-.326-.303-.674-.577-1.022-.87-1.003 1.11-.59 2.546-1.207 3.592.226.3.41.538.59.774l-.13.142a31.236 31.236 0 0 0-.594-.122m-27.12-4.175c-.913-.114-1.617-.209-2.326-.284a1.05 1.05 0 0 0-.477.09c-1.42.62-2.467 1.704-3.145 3.024-.828 1.619-.763 3.394-.203 5.108.299.915 1.068 1.221 1.97.883a24.62 24.62 0 0 0 1.643-.7.974.974 0 0 0 .352-.313c.235-.315.438-.65.677-.959.753-.974.999-2.057.7-3.248-.31-1.225-.335-2.392.808-3.601m12.612 5.024c.126-.234.264-.466.381-.71.395-.818.708-1.669 1.467-2.28.367-.292.613-.772.823-1.208.534-1.124 1.487-1.208 2.335-.312.665.704.608 1.549.738 2.347.292 1.813.526 3.632 1.288 5.336.376.844 1.015 1.038 1.774.561.874-.547 1.421-1.377 1.978-2.186.23-.345.211-.858.32-1.357.695-.357.937-.782.73-1.638-.21-.867.383-1.373.864-1.859.4-.4.664-.764.726-1.336.107-1.012.308-2.017.433-3.03.054-.435.161-.787.648-.863.425-.07.785-.103 1.133.338.968 1.239 2.136 2.3 3.293 3.365.924.847 1.908 1.637 2.583 2.723.705 1.137 1.016 2.4.873 3.692-.064.585-.14 1.443-1.06 1.598-.76 1.125-2.116.732-3.127 1.215a2.95 2.95 0 0 1-2.289.074c-.947-.378-2.207-.462-2.628-1.712-.039-.11-.17-.193-.36-.401-.517.678-.999 1.314-1.489 1.944-.9 1.144-1.988 2.008-3.52 1.966-.445-.012-.943-.304-1.31-.602-.668-.551-1.047-1.313-1.39-2.113-.638-1.499-.825-3.09-1.16-4.652-.05-.251-.176-.486-.337-.91-.227.306-.387.484-.5.688-.105.188-.121.429-.239.605-1.093 1.597-1.69 3.413-2.372 5.194-.302.789-.586 1.022-1.276.918-.464-.066-.943-.778-.92-1.357.03-.884.126-1.737-.2-2.63-.282-.779-.173-1.692-.368-2.513-.196-.826-.544-1.616-.847-2.41-.072-.177-.24-.31-.375-.474-.291.207-.52.355-.628.77-.349 1.294-.822 2.553-1.243 3.83-.122.371-.267.747-.332 1.134-.19 1.14-.793 2.084-1.538 2.905-.471.525-1.118.95-1.77 1.236-.874.383-1.62-.049-2.197-.724-.405-.472-.743-1.005-1.122-1.5-.13-.176-.29-.33-.516-.576-.491 1.096-1.35 1.71-2.307 2.165-2.404 1.154-4.99.074-5.488-2.58-.287-1.524-.296-3.015.049-4.508.32-1.422 1.176-2.546 2.162-3.586.568-.602 1.184-1.044 2.028-1.3.824-.249 1.59-.52 2.478-.502 1.698.043 3.4 1.16 3.648 3.05.036.263-.06.603-.21.824-1.543 2.21-1.239 4.394.054 6.569.357.593.716.685 1.2.231.395-.373.681-.869.976-1.336a5.48 5.48 0 0 0 .575-1.116c.376-1.084.712-2.185 1.072-3.273.317-.968.61-1.943 1.27-2.76.203-.253.314-.576.467-.868.468-.885 1.012-1.01 1.847-.483.806.509 1.207 1.314 1.537 2.131.368.91.625 1.867.898 2.816.126.433.182.885.27 1.331.065.037.131.073.2.11M46.758 49.02c.256-.019.417-.028.575-.048.842-.122 1.658-.324 2.405-.746 1.069-.603 2.45-.605 3.27-1.695.108-.142.343-.189.526-.27 1.072-.477 1.517-1.346 1.701-2.462.236-1.409-.015-2.775-.46-4.064-.495-1.426-1.333-2.725-3.013-2.982-.759-.115-1.586-.036-2.35.108-1.194.227-2.324.66-3.37 1.446.673.612.655 1.2.183 1.87-.196.27-.235.674-.26 1.028-.145 1.651.09 3.283.324 4.91.14.96.308 1.918.47 2.905m2.765 8.973c-.29.615-.574 1.192-.828 1.78-.23.52-.8.202-1.07.491-1.375-.742-1.328-2.19-1.818-3.358.286-.567-.077-1.149-.012-1.66.11-.882-.25-1.639-.322-2.457-.039-.47-.1-.94-.161-1.51-.969.095-1.911.216-2.854.264-.522.028-1.052-.114-1.567-.078-.504.034-.995.2-1.742.362-.449-.444-1.06-1.058-1.72-1.712.217-.37.33-.824.54-.877.488-.12 1.031-.077 1.545-.033.344.03.682.272 1.012.255 1.476-.064 2.947-.19 4.552-.301-.166-1.372-.283-2.643-.483-3.9-.269-1.657-.452-3.31-.225-4.986.026-.232.068-.459.08-.69.007-.125-.034-.254-.073-.52-.526.219-1.034.352-1.453.622-1.578 1.023-3.092 2.136-4.695 3.116-.535.328-.926.644-1.122 1.234-.113.332-.404.399-.74.328-.533-.116-.976-.497-1.053-.93-.088-.508.434-1.48.896-1.763 1.005-.618 1.979-1.288 2.997-1.89.732-.433 1.526-.77 2.273-1.19 1.498-.837 2.977-1.715 4.479-2.543.303-.167.685-.185 1.032-.266 1.03-.239 2.046-.537 3.088-.695.69-.105 1.417-.033 2.128-.002.766.035 1.34.527 1.95.912.67.417 1.064 1.055 1.508 1.682 1.28 1.81 1.568 3.87 1.611 5.994.012.575.095 1.15-.2 1.736-.704 1.383-1.593 2.564-3.009 3.266-1.604.794-3.293 1.37-5 1.89-.378.118-.777.167-1.168.233-.763.133-.958.404-.755 1.133.13.473.352.925.452 1.4.095.478.126.975.122 1.465-.004 1.048.746 1.79 1.068 2.707.074.206.45.307.737.49m8.505-35.109c0 .297-.036.6.014.887.028.201.168.387.276.568.06.099.238.198.222.258-.226.816.386.998.912 1.293.426.241.783.605 1.207.844.877.496 1.86.644 2.849.768 1.602.2 3.165-.112 4.69-.462 1.122-.258 2.172-.828 2.936-1.804.418-.535 1.107-.846 1.298-1.576.05-.183.158-.366.15-.546-.085-1.293.084-2.638-.736-3.798-.125-.182-.185-.426-.238-.647-.425-1.927-3.084-3.625-4.809-3.458-.893.085-1.845.106-2.71-.105-.728-.182-1.528-.604-2.018-1.16-1.342-1.527-2.086-3.317-1.932-5.425.15-2.048.85-3.867 2.126-5.44.44-.542 1.082-.982 1.717-1.298.938-.47 1.92-.91 2.94-1.138 1.425-.325 2.892-.798 4.365-.252a6.167 6.167 0 0 1 1.689.956c.824.663.752 1.705.92 2.625.052.29-.03.611.052.887.217.717-.044 1.216-.699 1.661C72 5.6 72.456 4.04 71.8 2.701c-.552-.207-1.241-.532-1.969-.713-.425-.105-.92-.038-1.36.057a13.02 13.02 0 0 0-1.996.586c-1.78.687-3.377 1.496-4.082 3.54-.418 1.2-.633 2.36-.494 3.565.142 1.22.616 2.4 1.75 3.023.63.348 1.445.385 2.184.501.618.091 1.25.123 1.872.133 1.7.016 2.896 1.011 4.051 2.06.291.269.42.71.627 1.072.073.138.1.34.212.417 1.119.75 1.399 1.966 1.636 3.143.218 1.054.387 2.157.302 3.215-.106 1.247-.774 2.328-1.647 3.253-.135.143-.326.238-.445.395-1.43 1.912-3.541 2.206-5.718 2.469-1.533.187-3.015-.261-4.53-.151-.178.013-.378-.098-.552-.179a253.05 253.05 0 0 1-3.214-1.52c-.138-.066-.25-.208-.356-.33-.442-.53-.907-1.041-1.311-1.602-.548-.765-.959-1.594-.583-2.572.326-.842.748-.95 1.503-.423.105.075.213.152.349.243"/><path fill="#F7D0D0" d="M38.82 16.716c-.4-.13-.778-.216-1.134.065-.708.565-1.376 1.189-2.122 1.698-1.404.956-2.51 2.192-3.536 3.519-.657.853-1.335 1.674-1.677 2.751-.34 1.08-.834 2.131-1.408 3.112-.247.428-.159.608.13.968.743-.65 1.521-1.247 2.194-1.939 1.382-1.414 2.71-2.87 4.043-4.32.51-.555 1.056-1.098 1.442-1.735.743-1.233 1.386-2.524 2.058-3.797.045-.075.01-.192.01-.322M25.722 33.03c.212-.559.398-1.05.576-1.541.184-.497.137-.65-.25-1.017.503-1.301.977-2.583 1.494-3.85a90.112 90.112 0 0 1 1.702-3.98c.213-.46.546-.872.867-1.271 1.07-1.33 2.108-2.673 3.553-3.67.697-.48 1.252-1.2 1.895-1.789 1.02-.921 2.175-1.584 3.518-1.884.967-.217 1.97.758 1.89 1.77-.088 1.101-.523 2.099-1 3.062-.448.91-1.016 1.76-1.526 2.64-.341.59-.654 1.178-1.095 1.724-1.197 1.5-2.617 2.77-3.963 4.12-.566.565-1.164 1.102-1.708 1.685-.59.632-1.433 1.034-1.763 1.913a8.306 8.306 0 0 1-.552 1.116c-.189.338-.368.7-.637.965-.227.222-.406.37-.38.733.01.14-.252.37-.437.442-.582.227-1.352-.1-1.742-.667-.109-.16-.256-.294-.442-.501m12.489 37.468c-.35-.534-.564-1.044-.934-1.393-1.142-1.082-2.239-2.209-3.583-3.074-1.107-.712-2.127-1.556-3.22-2.292-1.253-.84-2.606-1.443-4.17-1.415-.723.014-1 .31-.826.984.169.665.348 1.327.866 1.858.705.724 1.25 1.59 2.175 2.103 1.38.769 2.718 1.607 4.086 2.391.573.325 1.195.559 1.762.885 1.127.642 2.285 1.013 3.602.71.09-.278.17-.525.242-.757m4.573 1.435l.987 1.433c-.83 1.493-1.578 1.728-3.092.956-.057-.03-.13-.106-.169-.088-.86.333-1.57-.306-2.376-.376-.808-.07-1.615-.35-2.379-.651-1.043-.404-2.058-.893-3.054-1.396-.614-.307-1.152-.767-1.771-1.053-2.125-.982-4.023-2.277-5.534-4.051-.626-.743-1.19-1.622-1.487-2.532-.294-.91-.354-1.969.115-2.893.308-.605.993-.818 1.61-.812 1.738.02 3.415.298 4.898 1.35 1.065.756 2.25 1.353 3.346 2.076.816.54 1.585 1.155 2.348 1.772.583.473 1.112 1.007 1.672 1.508.952.852 1.533 1.945 2.124 3.051.6 1.118 1.59 1.69 2.762 1.706M2.105 42.001c.33 0 .571.053.782-.01 1.276-.384 2.449-.952 3.435-1.881a21.399 21.399 0 0 1 1.632-1.35c.8-.608 1.451-1.317 1.859-2.237.06-.146.138-.305.252-.399 1.038-.849 1.073-2.145 1.482-3.27.047-.14-.098-.346-.191-.64-.792.345-1.525.621-2.215.976a11.93 11.93 0 0 0-1.66 1.038c-1.616 1.19-3.331 2.253-4.334 4.109-.608 1.122-1.05 2.251-1.042 3.664m8.915-12.306c.217-.65.839-.925 1.564-.471.321.203.778.537.791.824.021.61.377.942.77 1.364-.302.357-.374.71-.141 1.157.2.384.074.735-.237 1.14-.494.639-.797 1.43-1.154 2.166-.915 1.91-2.118 3.55-3.813 4.903-.92.738-1.932 1.337-2.812 2.1-1.092.937-2.38 1.234-3.74 1.397-.196.024-.394.04-.591.073-1.17.193-1.87-.597-1.598-1.729.13-.535.123-1.097.188-1.644.034-.29.069-.584.15-.865.29-1 .644-1.953 1.187-2.879.472-.804 1.138-1.415 1.64-2.17.418-.623 1.13-1.122 1.812-1.483 1.263-.673 2.312-1.63 3.509-2.386.746-.469 1.508-.913 2.475-1.497m154.698 32.068c-.08-.235-.152-.469-.229-.698-.055-.15-.196-.323-.158-.432.33-.878.004-1.68-.299-2.457-.333-.85-.765-1.665-1.168-2.487-.697-1.41-1.534-2.722-2.625-3.864-.377-.393-.793-.691-1.376-.687-.572.005-.751.144-.808.74-.1 1.116.123 2.2.39 3.272.046.184.161.36.28.518.56.762 1.093 1.552 1.71 2.27 1.229 1.442 2.575 2.773 4.283 3.825m-1.133 3.247c.16-.85-.287-1.341-.8-1.904-.422-.462-.89-.847-1.32-1.278-.912-.912-1.76-1.88-2.602-2.854a19.268 19.268 0 0 1-1.384-1.784c-1.084-1.597-1.452-3.395-1.479-5.294-.015-1.086.636-1.847 1.23-2.632.118-.158.422-.285.617-.261 1.243.16 2.557.13 3.419 1.335.808 1.132 1.767 2.145 2.387 3.424.5 1.032 1.216 1.957 1.706 2.99.532 1.106 1.056 2.212.978 3.538-.06 1.071.1 2.174.738 3.13.104.153.214.417.154.558-.31.716.042 1.33.238 1.97.104.34-.013.557-.291.756-.522.37-1.725.176-2.12-.344-.404-.529-.622-1.249-1.471-1.35m10.407-19.056c-1.173-4.068-5.364-5.796-8.161-4.852 2.071 2.557 5.016 3.667 8.16 4.852M163 39.028c.504-.394.89-.694 1.325-1.028.247.224.477.433.89.533 1.447.349 2.898.565 4.378.679 1.06.082 2.108.27 2.997.917.586.428 1.21.825 1.712 1.336 1.08 1.11 1.997 2.346 2.644 3.77.23.504.515.997.85 1.439.7.922.587 1.888.313 2.883-.456.246-.81.178-1.242-.05-1.042-.552-2.136-1.012-3.2-1.53a154.207 154.207 0 0 1-3.788-1.91 22.16 22.16 0 0 1-2.041-1.213c-.368-.247-.66-.606-.985-.913-.095-.09-.184-.21-.3-.258-1.129-.46-1.681-1.455-2.288-2.409-.256-.407-.631-.746-.87-1.161-.199-.346-.282-.76-.395-1.085M145.157 20.69c.533-.146.85-.193 1.138-.314.751-.327 1.49-.685 2.237-1.03 1.78-.818 3.262-2.013 4.282-3.678.455-.745.712-1.617 1.01-2.444.144-.389-.01-.705-.433-.804-.577.44-1.13.859-1.672 1.283-.672.522-1.359 1.027-1.997 1.588-.882.773-1.885 1.41-2.568 2.407-.476.703-1.077 1.326-1.587 2.008-.16.214-.215.506-.41.984m10.523-9.058c.256.965.022 1.821-.383 2.682-.333.71-.49 1.485-.946 2.162-.708 1.045-1.545 1.96-2.468 2.814-1.25 1.159-2.795 1.862-4.285 2.598-1.238.607-2.532 1.234-4.061.978-1.255-.208-1.905-1.413-1.32-2.542.472-.904 1.354-1.39 1.932-2.162.588-.792 1.422-1.352 1.928-2.231.28-.484.842-.81 1.291-1.19 1.08-.901 2.177-1.792 3.261-2.692.1-.083.184-.194.252-.304.334-.514.648-.985 1.307-1.234.318-.119.449-.743.656-1.143.348-.668.82-1.215 1.602-1.336.8-.124 1.085.106 1.295.87.138.502.257 1.015.456 1.49.26.612-.14.915-.517 1.24m5.005 16.303c-1.15-.512-1.184-.59-2.066-.233-1.513.614-3.015 1.28-4.46 2.037-1.311.685-2.568 1.488-3.809 2.299-.726.468-1.576.802-2.007 1.657-.382.757-.848 1.472-1.228 2.23-.079.154-.01.49.116.6.126.11.483.145.613.049 1.134-.823 2.558-.898 3.786-1.547 1.187-.628 2.234-1.41 3.319-2.147.912-.615 1.715-1.379 2.587-2.056.623-.484 1.29-.913 1.908-1.405.234-.188.586-.516.548-.71-.123-.562.313-.556.693-.774M145 37.793c.15-.75.247-1.4.412-2.032.504-1.913 1.563-3.468 3.136-4.66 1.228-.934 2.445-1.904 3.951-2.386 1.087-1.143 2.749-1.217 3.974-2.138.613-.458 1.48-.567 2.12-1.007 1.242-.857 2.526-.555 3.825-.324.453.082.888.213.97.826.048.37.623.661.151 1.119-.037.036-.056.128-.044.187.161.804-.234 1.308-.781 1.877-1.111 1.154-2.393 2.054-3.704 2.95-.947.648-1.79 1.439-2.675 2.172-.075.063-.105.183-.187.23-1.237.748-2.445 1.563-3.744 2.195-1.288.633-2.656 1.1-4.013 1.585a8.024 8.024 0 0 1-1.92.456c-.306.03-.682-.18-.958-.378-.232-.16-.362-.465-.513-.672M27.837 45.299c-1.221-.316-1.268-.388-2.08.108a50.707 50.707 0 0 0-4.058 2.74c-1.181.892-2.288 1.89-3.377 2.893-.636.585-1.42 1.053-1.704 1.964-.25.813-.594 1.594-.843 2.403-.05.164.07.484.214.573.15.09.499.064.616-.053.978-.996 2.371-1.307 3.474-2.147 1.068-.813 1.969-1.756 2.92-2.665.793-.755 1.463-1.643 2.21-2.453.534-.58 1.12-1.112 1.645-1.695.206-.225.497-.609.421-.79-.207-.537.218-.602.562-.878M14 57.597c.027-.766.012-1.422.07-2.07.179-1.968.968-3.677 2.318-5.115 1.06-1.12 2.094-2.278 3.502-3 .882-1.309 2.51-1.651 3.563-2.76.53-.555 1.37-.806 1.925-1.343 1.081-1.05 2.402-.962 3.721-.949.457.005.909.065 1.091.656.108.356.726.548.334 1.075a.252.252 0 0 0-.012.193c.291.767-.014 1.33-.455 1.979-.908 1.323-2.02 2.423-3.166 3.522-.827.791-1.525 1.714-2.28 2.578-.062.076-.071.2-.141.26-1.103.938-2.157 1.943-3.33 2.782-1.169.832-2.442 1.52-3.696 2.223a8.18 8.18 0 0 1-1.815.763c-.3.08-.71-.067-1.012-.215-.257-.121-.43-.398-.617-.58"/></g></svg>