<svg xmlns="http://www.w3.org/2000/svg" xmlns:xlink="http://www.w3.org/1999/xlink" width="185" height="69" viewBox="0 0 185 69"><defs><path id="a" d="M26.096 19.149H0V0h26.096v19.149z"/><path id="c" d="M0 0h22.393v19.224H0V0z"/><path id="e" d="M0 0h22.393v19.224H0V0z"/><path id="g" d="M0 43.608V.071h117.042v43.537z"/><path id="i" d="M0 43.608V.071h117.042v43.537z"/></defs><g fill="none" fill-rule="evenodd"><path fill="#FFF" d="M79.349 54.572c.23 1.262.38 2.28.612 3.272.114.486.305.989.585 1.394.57.837 1.977 1.19 2.741.688.5-.33.93-.776 1.365-1.197.364-.35.687-.736 1.164-1.255.247.78.533 1.398.637 2.046.155.976.934 1.45 1.485 2.11.088.104.35.16.485.112.86-.317 1.756-.61 2.356-1.358.607-.747 1.145-1.551 1.721-2.322.032-.041.125-.033.191-.045.059.028.144.045.176.092.36.587.702 1.19 1.074 1.772.122.197.301.366.478.515.927.772 2.589.225 3.44-.397 1.416-1.046 2.133-2.553 2.308-4.33.072-.735.252-1.47.435-2.19.048-.196.278-.358.45-.506.878-.775 2.066-1.133 2.811-2.094.02-.024.122.016.287.049-.041.478-.11.964-.125 1.454-.052 1.503-.068 3.007.23 4.502.281 1.418 1.085 2.785 2.731 2.937 1.248.117 2.41-.028 3.519-.65.586-.327 1.231-.543 1.951-.857.208.27.352.507.546.7 1.05 1.032 2.857 1.458 4.025.694 1.22-.8 2.67-1.185 3.754-2.25.59-.583 1.18-1.129 1.694-1.793.44-.57.724-1.398 1.584-1.467.366.753.647 1.52 1.092 2.18.265.389.749.702 1.2.867.876.314 1.726.165 2.532-.374.895-.59 1.176-.522 1.984.132.475.383 1 .704 1.503 1.05.618.426 1.329.763 1.832 1.298.532.567 1.207.748 1.843 1.037.206.096.522.055.75-.028 1.255-.466 2.325-1.222 3.406-2.014.88-.643 1.123-1.575 1.646-2.379.117-.185.144-.47.128-.7-.096-1.293.045-2.588-.153-3.897-.158-1.054-.45-2.002-.959-2.89-.523-.913-1.204-1.737-1.694-2.665-.507-.965-1.331-1.543-2.153-2.15-.402-.293-1.228-.1-1.421.366a12.87 12.87 0 0 1-1.852 3.183c-.206.257-.529.461-.637.752-.455 1.225-1.182 2.303-1.955 3.312-.69.892-1.174 2.113-2.561 2.25-.118.012-.246.225-.312.37-.283.622-.777.912-1.433 1.02-1.015-.977-1.173-2.263-1.151-3.497.014-.69.548-1.374.87-2.053.16-.337.43-.635.537-.985.3-.964.543-1.941.799-2.918.159-.618.309-1.242.448-1.865.17-.771.368-1.535.475-2.31.11-.813.11-1.636.19-2.452.153-1.596.373-3.19-.493-4.758-.982-.021-1.967-.085-2.71.876-1.133 1.47-1.666 3.207-2.01 4.963-.284 1.451-.488 2.942-.367 4.462.034.441.138.948.046 1.386-.25 1.23-.122 2.415.134 3.625.09.422.153.924-.186 1.383-.722.976-1.38 2.002-2.055 3.014-.502.747-1.381 1.121-1.793 1.993-.15.313-.566.78-1.172.671-.19-.036-.429.157-.638.261-.663.334-1.33.668-1.982 1.018-.44.24-.876.148-1.28-.033-.364-.157-.52-.47-.23-.832.47-.591.966-1.153 1.439-1.74.323-.394.732-.764.925-1.218.45-1.064.837-2.162 1.168-3.271.22-.744.424-1.528.411-2.291-.012-.772-.242-1.559-.473-2.307-.378-1.221-1.205-1.724-2.459-1.687-.746.019-1.29.304-1.913.742-1.187.825-1.74 1.89-1.868 3.26-.114 1.23-.154 2.468-.336 3.686-.14.952.04 1.852.276 2.732.226.84.076 1.363-.647 1.857-.917.623-1.947.92-2.997 1.182-.719.181-1.233-.088-1.377-.828-.14-.7-.287-1.439-.202-2.134.154-1.234-.182-2.54.503-3.702-.178-1.101.24-1.938 1.024-2.713.51-.503.265-1.668-.304-2.153-.518-.447-1.113-.35-1.81.24-.517.442-1.08.828-1.594 1.275-.807.699-1.849 1.165-2.168 2.27-.515.076-.868-.031-1.17-.394-.19-.229-.47-.385-.702-.586-.496-.43-1-.334-1.508-.032-.526.31-.454.795-.353 1.274.056.269.118.554.259.78.525.831.469 1.668.143 2.543-.106.281-.175.607-.142.901.047.44-.016.804-.322 1.137-.13.144-.197.357-.261.55-.29.869-.841 1.524-1.601 1.994-.469.29-.91.165-1.058-.367-.287-1.015-.599-2.053-.68-3.098-.068-.896.044-1.82.285-2.737.283-1.076.63-2.162.557-3.315-.036-.55-.497-1.306-.98-1.41-.543-.125-1.191.16-1.373.739-.294.948-.6 1.917-.683 2.894-.111 1.325-.111 2.651-.767 3.861-.147.274-.23.58-.382.845-.497.876-.98 1.764-1.54 2.595-.206.306-.556.66-1.061.366-.778-2.137-.836-4.36-.69-6.607.012-.172.03-.354.097-.506.45-1.042.308-2.162.43-3.243.088-.776-.38-1.202-1.168-1.242-.393-.02-.79.056-1.279.096-.177 1.756-.42 3.424-.492 5.096-.085 1.982-.923 3.517-2.396 4.755-.686.575-1.034.503-1.187-.346-.268-1.484-.405-2.986-.662-4.473-.25-1.443.223-2.898-.184-4.356-.152-.543.082-1.219.216-1.813.041-.18.319-.39.52-.434a114.2 114.2 0 0 1 4.01-.78c1.193-.217 2.466-.012 3.556-.768.198-.14.53-.112.8-.104.786.016 1.463-.274 2.085-.715.554-.398.494-.813-.068-1.21-.705-.503-1.526-.458-2.314-.57-.183-.025-.397.067-.58.14-.961.394-1.887.908-2.881 1.161-1.623.419-3.285.668-5.087 1.018 0-.484-.048-.885.01-1.27.091-.607.26-1.206.387-1.81.284-1.33-.032-1.932-1.313-2.475-.568.366-1.102.716-.985 1.595.051.402-.198.845-.308 1.27-.05.19-.125.382-.132.575-.012.775-.004 1.556-.004 2.48-.846.064-1.751.148-2.66.197-.549.028-1.187.622-1.128 1.105.084.652.93 1.166 1.601.968.567-.168 1.134-.341 1.772-.534.144.828.156 1.483-.12 2.146-.12.293-.107.648-.138.977-.013.165.085.398.005.49-.501.579-.328 1.31-.483 1.965-.19.793-.386 1.584-.621 2.36-.231.751-.447 1.519-.8 2.215-.407.803-.968 1.53-1.447 2.298-.497.804-1.146 1.343-2.2 1.367-.102-.169-.26-.354-.329-.571-.175-.554-.32-1.122-.465-1.685-.418-1.672-.685-3.35-.4-5.084.17-1.032.453-2.08-.079-3.102-.33-.635-.636-1.282-.963-1.914-.318-.61-.872-.9-1.51-.908-1.303-.028-2.587.065-3.697.913-.401.305-.867.539-1.321.759-1.525.736-2.327 2.071-2.633 3.617-.166.857-.09 1.809.13 2.75.158.671.348 1.358.56 1.996.368 1.082.616 2.248 1.554 3.076.505.45 1.091.538 1.69.603.4.04.826-.02.996-.523.017-.056.183-.109.263-.088.758.176 1.192-.37 1.678-.771.46-.375.879-.8 1.374-1.26.288.797.539 1.605.88 2.375.273.616.546 1.3 1.017 1.745 1.01.949 2.773.849 3.814-.14 1.357-1.295 2.55-2.705 3.115-4.561.214-.708.581-1.37.977-2.28"/><g transform="translate(11.69 41.663)"><mask id="b" fill="#fff"><use xlink:href="#a"/></mask><path fill="#FFF" d="M0 17.553c-.035 1.053.99 1.808 2.023 1.543 1.582-.406 3.229-.455 4.793-1.017 1.108-.402 2.325-.486 3.475-.791 1.686-.443 3.258-1.155 4.683-2.18.382-.276.805-.494 1.208-.742.202-.12.419-.23.595-.382 1.201-1.053 2.385-2.122 3.594-3.163.357-.31.797-.523 1.163-.824 1.617-1.319 3.23-3.424 4.285-5.272.368-.644.356-1.19.045-1.73-.204-.361-.6-.618-.939-.887-.457-.362-1.114-.446-1.282-1.202-.072-.326-.522-.735-.851-.792-.724-.12-1.514-.176-2.22-.011-1.27.293-2.615.417-3.751 1.173a.456.456 0 0 1-.186.08c-1.612.269-2.94 1.218-4.376 1.885-1.013.47-1.896 1.222-2.899 1.72-.965.474-1.795 1.109-2.539 1.852-.955.954-1.905 1.926-2.727 2.99-.952 1.23-1.814 2.541-2.618 3.88-.48.795-.8 1.695-1.143 2.564-.177.45-.244.94-.332 1.306" mask="url(#b)"/></g><path fill="#FFF" d="M167.779 38.998c0-.132.005-.269-.003-.405-.028-.587-.241-.985-.878-1.162-.428-.117-.814-.414-1.197-.663-1.286-.836-2.56-1.66-4.014-2.2-1.612-.602-3.135-1.417-4.88-1.654-1.781-.241-3.54-.696-5.327-.853-1.855-.16-3.718.025-5.584.205-1.463.145-2.557.8-3.573 1.729-.173.16-.303.437-.331.675-.098.888.371 1.459 1.114 1.849 1.703.896 3.458 1.712 5.094 2.717a22.45 22.45 0 0 0 6.375 2.668c1.487.37 2.997.539 4.54.382.66-.069 1.39-.14 1.992.073.682.24 1.145.028 1.669-.273.133-.081.338-.219.429-.17.73.382 1.219-.149 1.78-.43.482-.237.967-.506 1.48-.651.968-.277 1.4-.817 1.314-1.837m4.436 23.185c-1.078-.377-1.753-1.216-2.393-2.095-.174-.242-.341-.497-.55-.705-2.98-2.93-6.37-5.178-10.423-6.336a7.616 7.616 0 0 0-1.297-.24c-1.009-.098-2.035-.11-3.037-.264-.848-.128-1.385.245-1.83.854-.423.587-.367 1.258-.07 1.86.357.73.828 1.407 1.246 2.111.1.172.212.35.267.54.292.992.765 1.88 1.422 2.691.514.634.91 1.36 1.396 2.019 1.162 1.58 2.879 2.57 4.244 3.935.137.138.365.186.55.261.313.13.625.252.939.373 1.346.51 2.596 1.443 4.171.98.151-.045.34.022.511.044 1.501.2 2.932-.09 4.39-.449 1.256-.308 2.02-.836 2.122-2.2.05-.73-.12-1.295-.78-1.685-.749-.444-1.011-.95-.878-1.694"/><path fill="#FBF1ED" d="M17.556 31.643a7.131 7.131 0 0 1-.049-.188c-1.94.362-3.88.723-5.817 1.092-.123.02-.233.125-.347.198-.807.49-1.586 1.036-2.425 1.466-1.505.776-2.437 2.142-3.534 3.34-.69.752-1.298 1.571-1.98 2.332-.56.614-.531 1.812.042 2.411 1.057 1.108 2.457 1.514 3.856 1.696 1.766.225 3.542.269 5.35-.105 1.716-.357 3.209-1.13 4.661-1.969 1.466-.848 2.799-1.933 4.14-2.978.559-.434 1.147-.956 1.445-1.575.614-1.283 1.047-2.654 1.549-3.988a.66.66 0 0 0 .03-.301c-.083-.784-1.348-2.094-2.13-2.074-1.154.032-2.31.16-3.46.293-.45.053-.886.233-1.331.35"/><path fill="#FFF" d="M47.288 44.92c0 .52-.056 1.105.01 1.675.172 1.494-.163 3.018.311 4.493.06.185-.002.405-.007.61-.042 1.36-.061 2.714-.13 4.069a18.86 18.86 0 0 1-.254 2.23c-.124.743.543 2.013 1.27 2.11.803.104 1.43-.068 1.441-1.23.02-1.58.193-3.143.466-4.694.354-2.034 1.457-3.75 2.381-5.53.225-.44.648-.796 1.036-1.118.379-.317.732-.245.9.221.205.567.309 1.178.397 1.78.102.708.141 1.427.2 2.139.035.434.083.876.07 1.31-.013.466-.153.936-.129 1.394.035.704.362 1.443.212 2.087-.295 1.257-.063 2.178 1.054 2.837.024.016.03.064.054.088.648.66 2.131.338 2.36-.558.1-.39.038-.881-.107-1.266-.304-.8-.73-1.543-.67-2.46.021-.35-.194-.71-.308-1.07-.05-.152-.145-.297-.16-.45-.142-1.434-.257-2.868-.4-4.3-.147-1.478-.631-2.861-1.339-4.151-.426-.78-1.55-1.166-2.187-.772-.775.483-1.19 1.35-1.989 1.857-.46.293-.645 1.005-.99 1.503-.47.687-.976 1.342-1.598 2.191-.092-1.48-.194-2.726-.242-3.976-.047-1.213-.355-1.454-1.652-1.02m84.457-28.712c.176-.228.27-.37.383-.494.417-.45.555-1.037.256-1.516-.337-.538-.895-.932-1.588-.992-.098-.008-.255-.008-.288.048-.255.418-.814.635-.78 1.258.034.604.257 1.073.805 1.322.366.165.77.241 1.212.374"/><path fill="#000" d="M125.165 46.036v1.343c.291-.45.582-.892 0-1.343m2.135-9.203c-.86.896-1.32 1.727-1.518 2.672a42.243 42.243 0 0 0-.64 3.738c-.087.7-.019 1.427.031 2.138.008.137.243.358.385.366.158.007.386-.15.471-.298.116-.197.12-.458.178-.69.13-.523.249-1.05.397-1.568.263-.94.752-1.846.4-2.87-.02-.06-.025-.156.01-.2.586-.712.17-1.596.396-2.372.059-.197-.046-.443-.11-.916m-14.06 17.105c.88-.081 1.184-.651 1.412-1.146.59-1.293 1.142-2.616 1.584-3.97.37-1.118.054-1.813-.834-2.375-.64.3-1.261.57-1.692 1.245-.327.514-.127 1.049-.327 1.523-.65 1.551-.039 3.107-.142 4.723m-44.49-5.435c-1.255-.273-2.187.399-3.16.837a4.141 4.141 0 0 0-1.328.92c-.97 1.025-1.35 2.275-1.038 3.674.222 1 .488 1.989.797 2.961.096.31.357.596.608.813.146.128.465.2.633.128.742-.321 1.483-.676 1.96-1.386 1.05-1.56 1.955-3.176 1.852-5.157-.008-.172-.052-.357-.008-.514.21-.784-.07-1.483-.315-2.276m62.587 6.773c1.052.627 2.105 1.149 3.039 1.837 1.065.78 2.055.747 3.066.028.692-.49 1.422-.952 1.769-1.797.666-1.616.361-3.28.245-4.936-.004-.064-.038-.132-.066-.192-.524-1.114-1.03-2.239-1.582-3.336-.205-.41-.727-.49-1.032-.124-.557.668-1.105 1.362-1.509 2.13-.806 1.535-1.686 3.021-2.757 4.376-.472.6-.925 1.174-1.173 2.014m-51.99-.703c-.396.908-.763 1.572-.976 2.279-.565 1.856-1.76 3.266-3.116 4.56-1.041.99-2.804 1.09-3.814.141-.47-.446-.744-1.129-1.017-1.744-.341-.772-.59-1.58-.88-2.375-.495.458-.914.885-1.373 1.259-.487.401-.921.947-1.68.771-.079-.02-.245.032-.262.088-.17.502-.597.562-.996.522-.599-.064-1.185-.152-1.69-.603-.938-.827-1.185-1.993-1.553-3.074a22.92 22.92 0 0 1-.561-1.998c-.22-.94-.296-1.892-.13-2.749.306-1.547 1.108-2.88 2.633-3.617.454-.22.92-.454 1.32-.759 1.11-.848 2.395-.94 3.699-.913.637.008 1.19.298 1.509.908.327.632.634 1.28.964 1.914.53 1.02.249 2.07.079 3.102-.287 1.733-.02 3.412.4 5.085.143.562.29 1.13.464 1.684.069.217.227.402.33.57 1.054-.023 1.702-.562 2.199-1.366.48-.767 1.04-1.495 1.447-2.299.353-.695.569-1.463.8-2.214.235-.776.431-1.568.62-2.36.156-.655-.017-1.386.484-1.965.08-.092-.018-.325-.005-.49.03-.33.017-.684.138-.977.276-.663.264-1.318.12-2.146-.638.193-1.205.366-1.772.534-.67.198-1.516-.317-1.6-.968-.06-.482.578-1.077 1.127-1.105.909-.048 1.814-.133 2.66-.197 0-.925-.008-1.704.004-2.48.007-.193.082-.386.132-.575.11-.425.36-.868.307-1.27-.116-.88.417-1.229.986-1.595 1.282.543 1.597 1.145 1.314 2.476-.128.603-.297 1.202-.388 1.809-.058.385-.01.786-.01 1.27 1.802-.35 3.464-.6 5.087-1.017.994-.253 1.92-.768 2.88-1.162.184-.072.397-.165.58-.14.79.112 1.61.068 2.316.57.56.398.62.812.068 1.21-.624.442-1.299.731-2.086.715-.27-.008-.603-.037-.8.104-1.09.756-2.363.551-3.557.768a116.09 116.09 0 0 0-4.009.78c-.202.044-.478.253-.52.434-.134.594-.368 1.27-.216 1.813.407 1.458-.067 2.913.184 4.356.257 1.487.394 2.99.662 4.473.153.849.5.92 1.187.346 1.473-1.238 2.312-2.774 2.395-4.755.072-1.671.315-3.34.493-5.096.489-.04.886-.116 1.28-.096.788.04 1.255.466 1.167 1.242-.122 1.08.02 2.202-.43 3.243-.067.152-.085.334-.097.506-.146 2.247-.088 4.47.69 6.608.505.293.854-.06 1.063-.366.558-.832 1.04-1.72 1.538-2.596.152-.265.235-.57.381-.845.657-1.21.657-2.536.768-3.862.082-.976.39-1.944.683-2.893.182-.58.83-.864 1.373-.74.483.105.944.86.98 1.41.074 1.154-.273 2.24-.557 3.317-.242.916-.353 1.84-.285 2.736.081 1.046.393 2.083.68 3.098.148.531.589.656 1.058.366.76-.47 1.311-1.124 1.6-1.993.064-.193.132-.405.261-.55.307-.334.37-.696.324-1.137-.033-.294.036-.62.141-.901.326-.875.382-1.712-.142-2.544-.142-.225-.205-.51-.26-.78-.1-.478-.173-.963.353-1.273.508-.302 1.012-.398 1.508.032.232.2.511.357.703.586.301.362.655.47 1.17.394.318-1.104 1.36-1.572 2.167-2.27.514-.447 1.077-.833 1.595-1.275.696-.59 1.29-.687 1.809-.24.57.486.813 1.65.304 2.153-.784.776-1.202 1.612-1.024 2.714-.684 1.16-.349 2.467-.503 3.701-.085.696.062 1.435.202 2.134.144.74.658 1.01 1.377.828 1.05-.26 2.08-.559 2.997-1.182.723-.494.873-1.016.647-1.857-.235-.88-.415-1.78-.276-2.732.182-1.218.222-2.456.336-3.685.127-1.37.68-2.437 1.868-3.26.622-.439 1.167-.724 1.913-.744 1.254-.036 2.08.466 2.46 1.688.23.749.46 1.535.472 2.307.013.763-.191 1.548-.411 2.29a31.957 31.957 0 0 1-1.167 3.273c-.194.453-.603.823-.926 1.217-.473.587-.968 1.15-1.439 1.74-.29.362-.134.675.23.832.405.181.84.274 1.28.032.653-.35 1.32-.682 1.982-1.016.21-.105.447-.297.638-.261.605.107 1.023-.358 1.172-.672.412-.871 1.291-1.245 1.793-1.993.674-1.012 1.333-2.038 2.055-3.014.339-.459.275-.96.186-1.383-.256-1.21-.384-2.396-.134-3.625.092-.438-.012-.945-.046-1.387-.122-1.519.084-3.01.367-4.46.344-1.758.876-3.493 2.01-4.964.743-.961 1.729-.897 2.71-.877.866 1.569.647 3.163.493 4.76-.08.815-.08 1.639-.19 2.451-.107.776-.305 1.539-.475 2.31-.14.624-.29 1.247-.448 1.865-.256.977-.5 1.954-.799 2.918-.108.35-.377.647-.537.984-.32.68-.856 1.363-.87 2.055-.022 1.234.136 2.52 1.151 3.496.655-.108 1.15-.398 1.433-1.02.066-.146.194-.358.312-.37 1.387-.137 1.872-1.358 2.56-2.25.775-1.01 1.501-2.087 1.956-3.313.108-.29.43-.494.637-.751a12.86 12.86 0 0 0 1.852-3.183c.193-.467 1.02-.66 1.42-.366.823.607 1.647 1.185 2.154 2.15.49.929 1.171 1.752 1.694 2.665.509.887.8 1.836.96 2.89.198 1.309.056 2.604.152 3.898.016.229-.01.514-.128.7-.522.803-.766 1.735-1.646 2.378-1.081.791-2.151 1.548-3.406 2.014-.228.084-.544.125-.75.028-.636-.289-1.31-.47-1.843-1.037-.503-.535-1.213-.872-1.832-1.298-.504-.345-1.028-.666-1.503-1.05-.808-.654-1.09-.722-1.984-.132-.806.539-1.656.688-2.533.374-.45-.164-.934-.478-1.2-.868-.444-.659-.725-1.426-1.09-2.178-.86.069-1.146.896-1.585 1.466-.513.663-1.103 1.21-1.694 1.794-1.084 1.064-2.533 1.45-3.754 2.25-1.168.763-2.975.337-4.025-.695-.194-.193-.338-.43-.545-.7-.72.314-1.365.53-1.952.856-1.11.623-2.271.767-3.519.651-1.646-.153-2.45-1.52-2.732-2.937-.297-1.496-.28-3-.23-4.502.017-.49.085-.976.127-1.454-.165-.033-.267-.073-.288-.05-.744.962-1.933 1.32-2.811 2.095-.172.148-.402.31-.45.506-.183.72-.363 1.455-.435 2.19-.175 1.777-.892 3.285-2.308 4.33-.85.622-2.513 1.169-3.44.397a2.282 2.282 0 0 1-.478-.514c-.372-.582-.715-1.186-1.074-1.773-.032-.047-.118-.064-.177-.092-.065.012-.158.004-.19.045-.575.77-1.114 1.574-1.72 2.322-.601.748-1.497 1.04-2.357 1.358-.136.049-.397-.007-.484-.112-.552-.659-1.33-1.133-1.487-2.11-.103-.647-.389-1.266-.636-2.046-.477.52-.8.905-1.164 1.255-.434.421-.865.868-1.364 1.197-.764.502-2.172.148-2.742-.688-.279-.406-.471-.908-.585-1.394-.231-.992-.381-2.01-.612-3.271m-44.811-8.454c-.722.288-1.432.385-1.883.78-1.333 1.164-3.125 1.67-4.271 3.101-.198.246-.714.202-1.005.403-.276.192-.406.599-.68.803a64.56 64.56 0 0 1-2.742 1.937c-.953.652-1.775 1.507-2.914 1.87-.153.052-.286.18-.416.292-.48.419-.95.85-1.429 1.27-.293.258-.595.511-.953.816.198.045.292.089.382.081a58.282 58.282 0 0 0 2.213-.257c.3-.045.605-.12.882-.241.906-.398 1.826-.776 2.69-1.254.767-.422 1.493-.936 2.19-1.471 1.047-.804 2.041-1.676 3.077-2.496 1.027-.812 2.168-1.503 3.09-2.42.7-.699 1.377-1.494 1.76-2.46.073-.18.01-.417.01-.754M14.824 56.78c.441-.257.753-.43 1.054-.622.968-.616 1.94-1.234 2.896-1.865.568-.378 1.105-.808 1.68-1.174.265-.172.693-.176.856-.401.48-.647 1.096-1.077 1.75-1.508.938-.615 1.827-1.31 2.748-1.953 1.304-.904 2.353-2.118 3.697-2.998.79-.518 1.523-1.137 2.392-1.527.356-.161.587-.334.505-.824-.595-.088-1.18-.133-1.775.116-.877.366-1.767.688-2.65 1.034-.851.329-1.705.643-2.542 1.005-.492.212-.956.497-1.43.75-.224.122-.458.23-.665.374-.25.174-.453.426-.72.554-1.174.571-2.185 1.372-3.082 2.296-1.048 1.085-2.409 1.914-2.926 3.46-.051.153-.197.278-.293.418-.5.755-1.005 1.504-1.485 2.271-.072.117-.01.313-.01.594m-3.135 2.436c.088-.365.156-.856.332-1.305.343-.87.662-1.77 1.142-2.565.805-1.339 1.667-2.649 2.62-3.879.821-1.064 1.771-2.037 2.725-2.99.745-.743 1.575-1.378 2.54-1.852 1.003-.498 1.886-1.25 2.899-1.72 1.436-.668 2.764-1.616 4.376-1.885a.45.45 0 0 0 .185-.081c1.136-.755 2.481-.88 3.753-1.173.706-.165 1.495-.11 2.219.012.33.056.78.466.851.792.169.756.825.84 1.282 1.201.34.27.734.526.94.888.31.54.322 1.086-.046 1.729-1.056 1.849-2.668 3.954-4.284 5.272-.367.302-.807.515-1.164.825-1.21 1.04-2.392 2.11-3.594 3.162-.176.153-.393.261-.595.383-.403.248-.826.466-1.208.743a14.032 14.032 0 0 1-4.683 2.178c-1.15.305-2.367.39-3.475.792-1.564.562-3.211.61-4.793 1.016-1.032.266-2.058-.49-2.022-1.543m148.603-19.381c.038-.089.078-.178.117-.266-.406-.205-.791-.507-1.223-.602-1.724-.39-3.46-.724-5.196-1.058-.698-.136-1.479-.06-2.097-.354-.895-.421-1.811-.627-2.762-.759-.304-.044-.605-.08-.91-.12a26.89 26.89 0 0 0-.031.265c3.713 2.287 7.608 3.818 12.102 2.894m3.066-2.058l.123-.2c-.25-.174-.486-.364-.752-.507-.265-.15-.575-.218-.838-.37-2.48-1.431-5.175-2.27-7.969-2.689a27.013 27.013 0 0 0-6.616-.169c-.517.049-1.105.092-1.534.566.397.077.78.057 1.163.028.477-.039.98-.212 1.42-.107 1.38.325 2.719.81 4.096 1.133 1.716.398 3.385 1.052 5.165 1.116.824.028 1.6.163 2.367.475.496.201 1.014.358 1.587.08.203-.104.568.065.837.17.33.124.635.313.95.474m4.422 1.221c.087 1.02-.346 1.56-1.314 1.837-.513.145-.999.414-1.48.652-.561.28-1.05.81-1.781.43-.09-.05-.296.088-.43.169-.522.3-.985.514-1.668.273-.6-.214-1.33-.142-1.992-.073-1.542.157-3.053-.012-4.54-.382a22.45 22.45 0 0 1-6.374-2.668c-1.637-1.005-3.39-1.821-5.095-2.717-.742-.39-1.21-.961-1.113-1.849.028-.238.158-.515.331-.675 1.015-.929 2.11-1.584 3.572-1.729 1.866-.18 3.73-.365 5.584-.205 1.788.157 3.547.612 5.329.853 1.744.237 3.267 1.052 4.88 1.655 1.452.539 2.727 1.363 4.012 2.199.384.249.77.546 1.198.663.637.177.85.575.878 1.162.007.136.003.273.003.405m-.277 22.186c-.066-.816-.5-1.07-.847-1.396-1.506-1.41-3.269-2.462-4.96-3.614-.373-.253-.725-.71-1.28-.332-.049.036-.21-.018-.264-.08-.803-.872-1.979-.666-2.949-1.036-.144-.058-.342.033-.517.054 1.156.875 2.496 1.407 3.547 2.282 1.07.89 2.365 1.26 3.486 2 1.152.758 2.41 1.361 3.784 2.122m-11.023-3.64l-.223.186c.503.943.909 1.958 1.534 2.817.59.81 1.478 1.405 2.113 2.191.812 1.01 1.865 1.719 2.94 2.333 1.587.914 3.342 1.358 5.195 1.08.622-.09 1.151-.368 1.316-1.134-1.485-.725-2.502-2.131-4.137-2.573-.059-.016-.097-.097-.155-.135-.808-.506-1.602-1.03-2.421-1.508-1.27-.74-2.628-1.345-3.805-2.2a5.907 5.907 0 0 0-2.357-1.057m15.736 4.64c-.133.743.13 1.25.879 1.694.659.39.83.954.78 1.684-.102 1.365-.866 1.892-2.122 2.2-1.458.36-2.89.65-4.39.45-.171-.023-.36-.09-.51-.045-1.578.463-2.826-.47-4.173-.98a42.34 42.34 0 0 1-.938-.373c-.186-.074-.414-.123-.55-.26-1.366-1.366-3.081-2.355-4.244-3.937-.486-.657-.883-1.383-1.396-2.018a7.652 7.652 0 0 1-1.423-2.691c-.055-.19-.166-.368-.266-.54-.42-.704-.89-1.381-1.247-2.111-.296-.602-.352-1.273.07-1.86.446-.609.982-.982 1.83-.854 1.003.154 2.028.166 3.038.265.436.042.878.122 1.297.24 4.053 1.157 7.442 3.405 10.421 6.335.211.208.378.463.552.705.639.879 1.314 1.718 2.392 2.095M9.112 42.049c1.38.237 2.496.21 3.513-.153 1.284-.458 2.502-1.113 3.725-1.724 1.575-.788 2.748-2.122 4.129-3.18.204-.156.465-.434.138-.916-.789.399-1.589.788-2.373 1.206-1.336.716-2.635 1.507-4 2.166-1.498.724-3.053 1.33-4.574 2.006-.17.076-.277.289-.558.595M5.577 40.89c.57-.454.946-.997 1.333-1.004.732-.017 1.373-.197 2.02-.479.714-.305 1.457-.55 2.148-.896 1.242-.624 2.452-1.31 3.68-1.954.632-.325 1.279-.618 1.914-.932.183-.092.35-.218.528-.321.315-.186.637-.362.95-.555.605-.374 1.327-.619 1.618-1.398-.13-.041-.195-.085-.255-.081-1.95.237-3.93.305-5.822.884a21.75 21.75 0 0 0-2.94 1.153c-.514.242-.901.744-1.406 1.021-1.327.736-2.047 2.07-3.083 3.087a2.836 2.836 0 0 0-.527.744c-.094.176-.092.405-.158.73m11.979-9.247c.444-.116.88-.297 1.33-.349 1.15-.133 2.307-.262 3.462-.294.781-.02 2.046 1.29 2.128 2.074a.66.66 0 0 1-.03.301c-.501 1.334-.934 2.705-1.548 3.988-.298.619-.886 1.141-1.445 1.575-1.341 1.045-2.674 2.13-4.14 2.978-1.452.84-2.945 1.612-4.661 1.97-1.808.373-3.585.329-5.351.104-1.398-.182-2.798-.587-3.855-1.696-.573-.599-.601-1.797-.042-2.411.682-.76 1.29-1.58 1.98-2.332 1.097-1.198 2.03-2.564 3.534-3.34.839-.43 1.618-.977 2.425-1.466.113-.073.224-.178.346-.198 1.939-.369 3.878-.73 5.818-1.092.016.064.032.128.049.188M47.288 44.92c1.297-.435 1.605-.194 1.652 1.02.048 1.25.15 2.495.242 3.975.622-.849 1.128-1.504 1.598-2.19.345-.5.53-1.21.99-1.504.798-.506 1.214-1.374 1.99-1.857.636-.394 1.76-.008 2.186.772.708 1.29 1.192 2.673 1.338 4.151.144 1.432.26 2.866.401 4.3.015.153.11.298.16.45.114.36.33.72.308 1.07-.06.917.366 1.66.67 2.46.145.385.207.876.108 1.266-.23.896-1.713 1.218-2.361.558-.025-.024-.03-.072-.054-.088-1.117-.659-1.35-1.58-1.054-2.837.15-.644-.177-1.383-.212-2.087-.024-.458.116-.928.13-1.394.012-.434-.036-.876-.071-1.31-.059-.712-.098-1.43-.2-2.138-.088-.603-.192-1.214-.397-1.78-.168-.467-.521-.54-.9-.222-.388.322-.81.679-1.036 1.117-.924 1.78-2.027 3.497-2.381 5.53-.273 1.552-.447 3.116-.466 4.695-.011 1.162-.638 1.334-1.441 1.23-.727-.097-1.394-1.367-1.27-2.11.127-.74.216-1.484.253-2.23.07-1.355.089-2.71.13-4.068.006-.206.068-.426.008-.611-.474-1.475-.14-2.999-.31-4.493-.067-.57-.011-1.154-.011-1.676"/><path fill="#FFF" d="M131.34 55.276c.248-.84.7-1.415 1.172-2.014 1.07-1.354 1.951-2.84 2.757-4.377.404-.767.952-1.462 1.509-2.13.305-.365.826-.285 1.032.125.553 1.097 1.057 2.223 1.582 3.336.028.06.062.128.066.193.116 1.655.421 3.319-.245 4.935-.348.845-1.078 1.306-1.769 1.797-1.01.719-2.002.751-3.066-.028-.934-.688-1.987-1.21-3.038-1.837m-62.588-6.772c.245.791.526 1.49.315 2.275-.044.156 0 .342.008.514.103 1.98-.803 3.597-1.852 5.156-.477.711-1.218 1.066-1.96 1.387-.168.073-.487 0-.633-.128-.25-.218-.512-.503-.609-.813a34.678 34.678 0 0 1-.796-2.961c-.311-1.4.068-2.649 1.038-3.674a4.141 4.141 0 0 1 1.327-.92c.974-.438 1.906-1.11 3.162-.836m44.488 5.433c.104-1.616-.508-3.17.143-4.722.2-.474 0-1.009.327-1.523.43-.675 1.051-.945 1.692-1.246.888.563 1.204 1.258.834 2.375-.442 1.354-.993 2.677-1.583 3.97-.23.495-.534 1.065-1.412 1.146M127.3 36.833c.064.474.168.72.111.916-.226.775.189 1.66-.397 2.371-.034.045-.03.141-.01.201.352 1.025-.137 1.93-.4 2.87-.148.518-.268 1.045-.397 1.567-.057.233-.062.494-.178.69-.085.15-.312.307-.471.3-.141-.009-.377-.23-.385-.367-.05-.711-.117-1.44-.032-2.138.154-1.254.376-2.504.641-3.737.2-.945.659-1.777 1.518-2.673m-2.135 9.203c.582.45.291.892 0 1.343v-1.343zm25.537-26.312c.39.522.65.863.908 1.21.56.75 1.028 1.612 1.003 2.524-.019.679-.37 1.438-.785 2.005-.527.723-1.253 1.31-1.92 1.925-.248.229-1.23.084-1.515-.16-.257-.222-.485-.556-.776-.635-.65-.173-.947-.615-1.21-1.246.663-1.166 1.333-2.376 2.028-3.569.365-.632.596-1.335 1.29-1.77.386-.24.686-.393.977-.284"/><path fill="#F7D0D0" d="M15.025 56.942c0-.281-.062-.478.01-.594.479-.767.986-1.515 1.485-2.27.095-.141.241-.266.292-.419.518-1.547 1.879-2.375 2.926-3.46.897-.925 1.908-1.725 3.082-2.295.267-.129.47-.381.72-.554.207-.146.44-.254.665-.374.474-.253.938-.54 1.431-.752.836-.362 1.69-.675 2.54-1.005.884-.345 1.775-.667 2.65-1.033.597-.248 1.182-.205 1.777-.116.081.49-.15.663-.505.824-.87.39-1.603 1.009-2.393 1.528-1.343.88-2.393 2.093-3.697 2.997-.921.643-1.81 1.339-2.747 1.954-.655.43-1.272.86-1.75 1.506-.164.226-.591.23-.856.402-.575.367-1.112.796-1.681 1.174-.956.63-1.928 1.25-2.896 1.865-.301.193-.612.366-1.053.622M34.293 46c0 .337.064.574-.01.755-.383.965-1.06 1.76-1.76 2.46-.922.916-2.062 1.608-3.09 2.42-1.035.819-2.03 1.69-3.077 2.495-.696.535-1.423 1.05-2.189 1.47-.864.48-1.784.857-2.69 1.255a3.49 3.49 0 0 1-.883.24c-.734.105-1.474.182-2.213.258-.09.008-.183-.036-.381-.08.358-.306.66-.559.953-.816.478-.422.95-.852 1.429-1.27.13-.113.263-.241.416-.293 1.138-.362 1.96-1.218 2.914-1.87a64.56 64.56 0 0 0 2.742-1.937c.274-.204.403-.61.68-.803.29-.2.807-.157 1.004-.402 1.146-1.431 2.938-1.938 4.272-3.102.45-.395 1.16-.492 1.883-.78"/><path fill="#FFF" d="M184.638 3.66c-.393-.443-.745-.84-1.104-1.234-.084-.093-.179-.209-.29-.241-1.141-.35-2.316-.088-3.472-.133-.62-.02-1.263.241-1.874.443-.796.257-1.634.478-2.34.904-1.246.751-2.426 1.623-3.599 2.491-1.553 1.142-3.115 2.274-4.59 3.513-.93.78-1.7 1.752-2.548 2.629-.735.755-1.501 1.482-2.218 2.254-.812.876-1.237 1.889-.808 3.175-.417.258-.83.49-1.218.755-.374.261-.711.595-.562 1.11.142.49.482.848 1.004.905.33.036.678-.013 1.006-.081.33-.069.638-.217.96-.31.94-.285 1.873-.575 2.82-.832.862-.229 1.646-.622 2.453-1 1.099-.516 2.212-1.001 3.316-1.516 1.197-.558 2.229-1.455 3.55-1.76.192-.04.375-.16.541-.274 1.271-.86 2.53-1.74 3.806-2.591 1.593-1.062 3.061-2.26 4.003-3.972.375-.674.718-1.398.918-2.142.192-.71.182-1.478.246-2.093"/><path fill="#000" d="M181.77 6.228c-.132-.024-.315-.113-.381-.056-.62.507-1.453.527-2.1.916-.872.523-1.686 1.154-2.483 1.793-1.236.992-2.42 2.053-3.662 3.046-1.616 1.295-3.145 2.705-4.948 3.754-.164.097-.256.318-.43.542.615.182 1.09.27 1.395-.257.307-.53.772-.744 1.341-.82.868-.112 1.407-.837 2.154-1.186.479-.22.922-.526 1.389-.783.169-.093.389-.117.543-.225 1.223-.9 2.436-1.817 3.658-2.726.617-.457 1.253-.887 1.861-1.357.35-.274.729-.548.968-.905.338-.507.924-.944.695-1.736m-1.62-2.311c-.695-.31-1.246-.096-1.745.136-1.134.535-2.263 1.086-3.353 1.705-1.683.956-3.286 2.05-4.753 3.332-.936.811-1.867 1.632-2.798 2.45-.383.339-.79.66-1.134 1.034a77.989 77.989 0 0 0-2.356 2.68c-.168.197-.216.503-.318.76a21.18 21.18 0 0 0 3.268-1.812 62.201 62.201 0 0 0 3.47-2.5c1.095-.86 2.133-1.8 3.193-2.705.483-.413.93-.876 1.443-1.247 1.46-1.051 2.949-2.064 4.414-3.113.233-.165.401-.427.669-.72m4.488-.257c-.063.614-.055 1.383-.246 2.094-.2.743-.543 1.467-.918 2.142-.941 1.712-2.41 2.91-4.003 3.97-1.275.852-2.535 1.733-3.805 2.593-.166.113-.35.233-.542.274-1.321.305-2.353 1.201-3.55 1.76-1.104.514-2.217 1-3.316 1.515-.807.378-1.59.772-2.453 1-.947.257-1.88.547-2.82.832-.322.092-.631.242-.96.31-.328.068-.677.116-1.006.08-.523-.056-.862-.413-1.004-.905-.15-.513.188-.847.562-1.108.388-.265.801-.498 1.218-.756-.429-1.286-.004-2.299.808-3.175.716-.771 1.483-1.499 2.218-2.254.848-.877 1.617-1.849 2.548-2.629 1.475-1.238 3.038-2.371 4.59-3.513 1.174-.868 2.353-1.74 3.599-2.49.706-.427 1.544-.648 2.34-.905.61-.201 1.254-.463 1.874-.442 1.156.044 2.33-.218 3.473.132.11.032.205.148.29.241.359.394.71.792 1.103 1.234"/><path fill="#F7D0D0" d="M180.435 4.155c-.267.293-.435.554-.669.719-1.464 1.05-2.953 2.062-4.414 3.114-.513.37-.96.833-1.443 1.247-1.06.904-2.097 1.845-3.192 2.705a62.517 62.517 0 0 1-3.47 2.5 21.18 21.18 0 0 1-3.268 1.812c.101-.257.15-.563.317-.76a77.988 77.988 0 0 1 2.357-2.68c.344-.375.75-.696 1.134-1.034.932-.819 1.862-1.64 2.798-2.45 1.467-1.283 3.07-2.376 4.753-3.332 1.09-.62 2.22-1.17 3.353-1.705.499-.233 1.05-.446 1.744-.136m1.547 1.92c.23.791-.357 1.229-.695 1.736-.239.357-.617.63-.967.904-.609.47-1.245.9-1.862 1.358-1.222.909-2.435 1.826-3.658 2.726-.154.108-.374.132-.543.224-.467.258-.91.563-1.389.784-.746.35-1.285 1.073-2.154 1.186-.569.076-1.034.29-1.34.82-.306.526-.781.438-1.395.257.173-.225.265-.446.429-.543 1.803-1.048 3.332-2.459 4.949-3.753 1.241-.994 2.425-2.054 3.662-3.047.796-.639 1.61-1.27 2.482-1.792.647-.39 1.48-.41 2.1-.916.066-.057.25.032.38.056m-18.416 31.987c-.316-.16-.62-.35-.95-.474-.27-.105-.634-.274-.838-.17-.573.279-1.09.122-1.586-.08-.766-.312-1.544-.446-2.367-.474-1.78-.064-3.449-.72-5.166-1.117-1.376-.321-2.716-.808-4.094-1.133-.442-.105-.944.068-1.422.108-.383.028-.766.048-1.163-.028.429-.474 1.018-.518 1.535-.566a26.897 26.897 0 0 1 6.616.169c2.793.417 5.49 1.257 7.968 2.688.263.153.573.221.839.37.265.144.502.333.752.506l-.124.201m-2.484 2.098c-4.494.923-8.389-.608-12.102-2.894.01-.09.02-.178.032-.266.304.04.605.076.909.12.95.133 1.867.338 2.762.76.618.293 1.399.217 2.097.354 1.736.334 3.472.667 5.196 1.057.432.096.817.398 1.223.602l-.117.266"/><path fill="#FBF1ED" d="M154.91 56.55a5.91 5.91 0 0 1 2.357 1.056c1.178.857 2.535 1.462 3.805 2.2.82.48 1.614 1.002 2.422 1.51.057.037.096.118.155.133 1.634.442 2.65 1.85 4.136 2.573-.164.766-.694 1.045-1.316 1.136-1.852.276-3.608-.167-5.193-1.08-1.077-.616-2.13-1.324-2.941-2.334-.636-.786-1.523-1.38-2.113-2.192-.626-.858-1.031-1.873-1.534-2.816l.223-.186m14.429 5.539c-1.375-.762-2.633-1.365-3.785-2.123-1.12-.74-2.416-1.11-3.487-2-1.05-.874-2.39-1.407-3.546-2.282.175-.021.373-.112.517-.054.97.37 2.146.164 2.949 1.037.053.062.215.115.263.08.556-.38.908.078 1.281.331 1.691 1.152 3.454 2.205 4.96 3.614.348.325.781.58.847 1.397M6 40.62c.065-.325.064-.554.157-.73a2.85 2.85 0 0 1 .527-.745c1.036-1.017 1.757-2.351 3.084-3.087.504-.277.891-.779 1.404-1.02a21.7 21.7 0 0 1 2.942-1.154c1.892-.578 3.872-.646 5.822-.884.06-.004.125.04.255.08-.29.78-1.014 1.026-1.618 1.4-.314.193-.635.37-.95.554-.179.104-.345.229-.528.32-.636.315-1.283.608-1.913.934-1.229.643-2.44 1.33-3.682 1.953-.69.346-1.433.59-2.147.896-.647.282-1.288.462-2.02.478-.387.008-.763.551-1.333 1.005"/><path fill="#FFF" d="M9 41.972c.281-.306.39-.518.558-.595 1.521-.675 3.076-1.282 4.574-2.005 1.365-.66 2.665-1.45 4-2.166.785-.418 1.584-.808 2.373-1.206.328.482.066.76-.138.916-1.38 1.057-2.554 2.392-4.13 3.18-1.222.61-2.44 1.265-3.723 1.724-1.018.362-2.134.39-3.514.152m82.558-22.936c-.527 1.234.216 2.372.272 3.581.077 1.72-.02 3.284-1.155 4.707-.498.627-1.094 1.093-1.687 1.57-.75.608-1.283.254-1.538-.718-.308-1.17-.598-2.34-.442-3.537.236-1.805.628-3.56 2.367-4.61.337-.205.606-.518.914-.772.417-.34.421-.337 1.269-.22"/><g transform="translate(.716 .734)"><mask id="d" fill="#fff"><use xlink:href="#c"/></mask><path fill="#FFF" d="M4.863.524C4.659.459 4.27.33 3.877.218 2.903-.067 1.925-.088.963.246c-.576.2-1.133.876-.914 1.198.44.647.34 1.475.99 2.086.738.699 1.214 1.688 1.788 2.56.424.643.806 1.318 1.235 1.961.302.454.681.856.967 1.318.81 1.307 1.668 2.56 2.893 3.52.497.395.986.817 1.397 1.3.793.928 1.898 1.41 2.832 2.13.457.349.964.658 1.49.883 1.042.455 2.112.844 3.172 1.246.253.097.547.25.78.197.421-.1.748.04 1.047.258.554.401 1.158.345 1.77.26.908-.124 2.128-1.479 1.969-2.282-.164-.828-.38-1.672-.741-2.427-.59-1.226-1.433-2.296-2.329-3.329-.955-1.1-1.796-2.306-2.727-3.431-.672-.809-1.353-1.62-2.126-2.32-.803-.727-1.694-1.358-2.594-1.96-.996-.665-1.99-1.375-3.084-1.826-1.183-.481-2.48-.69-3.915-1.064" mask="url(#d)"/></g><g transform="translate(.716 .734)"><mask id="f" fill="#fff"><use xlink:href="#e"/></mask><path fill="#000" d="M16.51 16.105c.052-.072.103-.149.155-.22-.616-.556-1.215-1.114-1.732-1.77-.646-.819-1.478-1.486-2.215-2.238-.421-.43-.78-.924-1.227-1.322-1.17-1.04-2.343-2.086-3.574-3.05-.987-.769-2.062-1.419-3.296-2.259.16.546.29.908.37 1.282.175.792.928 1.165 1.277 1.804.803 1.475 2.155 2.46 3.14 3.762.159.217.407.366.618.54 1.728 1.417 3.708 2.402 5.718 3.33.23.11.508.097.766.141M4.438 2.658c.299.288.46.51.677.647.652.422 1.35.775 1.984 1.225a88.327 88.327 0 0 1 3.5 2.617 28.074 28.074 0 0 1 2.177 1.86c.64.604 1.203 1.295 1.83 1.918a120.41 120.41 0 0 0 2.864 2.757c.389.362.828.67 1.25 1.009.308-.543.29-.535.099-.93-.938-1.931-2.572-3.33-3.836-5.014-1.117-1.491-2.548-2.75-4.14-3.738-1.049-.651-1.879-1.749-3.27-1.765-.057 0-.125-.056-.17-.104-.607-.623-1.43-.546-2.185-.671-.197-.032-.419.097-.78.19M4.864.523c1.434.374 2.731.582 3.915 1.065 1.093.45 2.088 1.16 3.083 1.824.9.603 1.792 1.235 2.595 1.962.772.7 1.454 1.51 2.125 2.318.932 1.126 1.772 2.332 2.728 3.432.896 1.034 1.738 2.103 2.329 3.328.361.756.576 1.6.74 2.428.16.803-1.061 2.158-1.969 2.283-.611.084-1.216.14-1.769-.262-.299-.216-.626-.357-1.048-.257-.233.053-.527-.1-.78-.197-1.059-.401-2.129-.79-3.171-1.245a7.072 7.072 0 0 1-1.491-.884c-.934-.72-2.039-1.202-2.832-2.13-.41-.482-.9-.906-1.397-1.299-1.225-.96-2.083-2.215-2.892-3.521-.287-.462-.665-.864-.967-1.318-.429-.643-.812-1.318-1.236-1.962-.574-.871-1.05-1.86-1.787-2.559C.388 2.92.488 2.091.049 1.443c-.22-.32.338-.996.914-1.197.963-.333 1.94-.313 2.914-.028.394.113.783.241.987.306" mask="url(#f)"/></g><path fill="#F7D0D0" d="M5 3.194c.361-.092.582-.22.78-.19.755.126 1.578.049 2.186.672.043.048.11.104.17.104 1.39.016 2.22 1.114 3.268 1.765 1.592.988 3.023 2.247 4.141 3.738 1.264 1.684 2.897 3.083 3.836 5.015.191.394.21.387-.098.929-.423-.338-.862-.647-1.251-1.01-.97-.904-1.926-1.823-2.864-2.756-.627-.623-1.19-1.314-1.83-1.917a28.074 28.074 0 0 0-2.177-1.86 88.916 88.916 0 0 0-3.5-2.618c-.633-.45-1.332-.803-1.984-1.225-.216-.137-.378-.359-.677-.647m11.889 13.665c-.258-.044-.537-.032-.767-.141-2.009-.928-3.99-1.914-5.717-3.331-.211-.174-.46-.322-.619-.539-.984-1.302-2.337-2.287-3.14-3.762-.348-.639-1.101-1.012-1.276-1.805C5.29 6.907 5.16 6.546 5 6c1.233.84 2.309 1.49 3.295 2.258 1.232.965 2.405 2.01 3.575 3.05.447.398.806.892 1.227 1.322.736.753 1.569 1.42 2.214 2.239.518.656 1.117 1.214 1.733 1.77-.052.07-.104.148-.155.22"/><g transform="rotate(4 85.55 437.146)"><mask id="h" fill="#fff"><use xlink:href="#g"/></mask><path fill="#FFF" d="M77.143 7.477c-.137.116-.27.25-.424.352-.366.244-.548.637-.47 1.009.102.491.167 1.035.562 1.436.282-.104.52-.071.66.206.125.25.342.298.586.302.23.004.46 0 .68 0 .066-.138.1-.23.151-.31.185-.29.266-.552-.04-.835-.079-.073-.045-.278-.046-.423 0-.07.073-.162.048-.211-.209-.408-.42-.816-.66-1.206-.097-.16-.242-.283-.487-.241-.168.028-.354-.046-.56-.08M58.268 5.383c-.135.591-.267 1.233-.427 1.867-.185.734-.4 1.46-.585 2.192a1.475 1.475 0 0 0-.015.52c.009.08.083.18.156.222.298.17 1.129-.07 1.229-.405.126-.421.46-.83.197-1.317-.025-.045-.004-.114-.004-.18.593-.32.885-.89 1.195-1.444.075-.134.123-.318.239-.388.35-.213.36-.574.456-.899.033-.109-.018-.265.044-.34.312-.385.103-.7-.072-1.052-.153-.309-.42-.42-.669-.328-.518.193-1.038.42-1.32.966-.106.205-.272.38-.424.586M37.948 16.5c-.503-.143-.971.23-1.445-.01-.013-.006-.038.008-.056.016-.426.186-.864.352-1.276.565-.639.33-1.18.789-1.703 1.287-.646.617-1.172 1.285-1.374 2.166-.118.512-.325.958-.764 1.27-.168.12-.268.25-.252.484.032.45.19.929-.228 1.312-.046.043.025.195-.002.283-.069.219-.104.5-.258.628-.302.252-.676.418-1.122.679-.035.05-.107.28-.257.358-.439.233-.777.515-.79 1.074l-.738.047c-.399-.701-.836-1.346-.515-2.222-.323-.215-.415-.565-.43-.981-.016-.424-.114-.844-.18-1.265-.057-.364-.141-.724-.177-1.089-.057-.578-.412-.983-.772-1.382-.077-.085-.246-.107-.376-.12-.305-.03-.611-.037-.954-.056-.278.293-.59.602-.876.934-.183.212-.367.44-.476.694-.197.46-.336.931-.82 1.209-.22.126-.375.366-.655.65-.059-.28-.126-.438-.116-.59.014-.21.107-.412.131-.62.065-.557.112-1.116.163-1.674.037-.411-.26-1.005-.542-1.09-.794-.24-1.36.27-1.224 1.1.035.21.125.45.062.632-.22.64.03 1.278-.054 1.914-.048.362-.074.748-.002 1.1a4.97 4.97 0 0 1-.064 2.224c-.05.202-.023.424-.032.637-.006.128-.015.257-.027.47-.312-.07-.582-.095-.823-.192-.537-.216-1.04-.263-1.537.105-.42.31-.847.617-1.3.877-.242.14-.544.176-.818.264-.221.072-.454.125-.658.232a2.507 2.507 0 0 1-1.538.271c-.04-.116-.091-.222-.112-.333-.12-.663-.243-1.325-.348-1.99-.12-.748-.22-1.499-.331-2.248-.043-.289-.046-.596-.154-.86-.168-.408-.16-.789-.04-1.198a.676.676 0 0 0-.035-.448c-.203-.417-.338-.83-.182-1.297.026-.077-.047-.183-.06-.277-.028-.19-.049-.38-.067-.57-.027-.292-.043-.584-.075-.875-.135-1.212-.479-2.394-.513-3.62a.371.371 0 0 0-.042-.169c-.317-.553-.112-1.126-.102-1.728 1.772-.836 3.545-1.628 5.453-2.13.357.414.914.351 1.378.53.159.062.3-.038.435-.2.388-.458.517-1.01.727-1.628-.234-.088-.44-.226-.648-.23-.336-.008-.543-.182-.745-.4-.146-.157-.28-.326-.438-.469-.08-.072-.233-.161-.299-.13-.376.18-.808.193-1.155.495-.478.416-.998.807-1.557 1.102-.679.36-1.431.58-2.124.917-.588.286-1.193.506-1.811.706a6.02 6.02 0 0 0-.702.286c-.702.33-1.323.835-2.132.94-.257.033-.498.184-.746.281-.792.31-1.446.877-2.266 1.151-.71.237-1.377.6-2.061.91-.53.241-1.05.503-1.587.728-.67.281-.831.552-.684 1.237.184.854.592 1.002 1.247.451.598-.502 1.22-.952 1.986-1.186.387-.118.756-.313 1.112-.511.93-.516 1.959-.837 2.833-1.46a.264.264 0 0 1 .166-.052c.53.065.922-.25 1.34-.484.204-.113.393-.279.65-.089.218 1.218.441 2.442.653 3.667.035.207-.01.428.034.631.184.847.059 1.729.335 2.573.127.391.049.847.08 1.273.032.454.089.907.123 1.362.04.539.135 1.08-.06 1.644.35.142.294.417.259.73-.04.345-.169.71.042 1.054.03.049.014.151-.019.206-.263.438-.211.908-.11 1.365a.988.988 0 0 1-.047.614c-.106.28-.156.582-.256.97-.966.534-2.03 1.118-3.09 1.712-.25.14-.474.33-.728.464-.411.217-.841.398-1.06.856-.026.058-.13.078-.197.118-.525.317-.608.955-.181 1.384.463.465 1.05.434 1.43-.167.45-.712 1.166-1.085 1.786-1.584a.771.771 0 0 1 .251-.143c.771-.233 1.442-.663 2.135-1.052.268-.15.58-.393.839-.356.583.085.957-.219 1.372-.499.142-.096.302-.175.464-.228.276-.09.558-.167.841-.227.337-.071.681-.11 1.018-.181a.784.784 0 0 0 .36-.161c.491-.45 1.036-.477 1.63-.26.123.043.294.093.39.041a.95.95 0 0 1 .78-.086c.089.028.228-.039.32-.1.208-.137.41-.289.598-.452.359-.309.539-.317.936-.048.208.141.422.29.654.376.442.163.968-.106 1.068-.54.154-.67.245-1.347.09-2.036-.122-.535-.148-1.054.376-1.426.042-.03.054-.102.083-.152.355-.6.619-1.262 1.193-1.709.044-.034.072-.091.105-.139.208-.3.406-.607.627-.896.056-.073.186-.088.294-.136.044.207.05.381.117.526.503 1.086.528 2.28.746 3.424.111.585.23 1.152.5 1.665.374.71.944 1.069 1.77.738.2-.08.412-.195.613-.186.651.029 1.07-.415 1.543-.724.578-.377 1.016-.944 1.678-1.226.183-.078.317-.328.42-.526.154-.301.229-.369.526-.248.232.095.445.233.672.34.328.157.641.328 1.043.21.508-.15 1.093.073 1.564-.301.023-.02.076.003.114-.003.393-.055.684-.29.964-.549.224-.207.427-.472.693-.59.309-.137.486-.378.693-.6.142-.151.232-.351.369-.509.076-.087.202-.132.365-.234.058.22.094.366.135.51.052.186.061.407.172.549.4.51.516 1.116.662 1.719.046.187.164.356.203.543.054.262.152.562.075.792-.148.44-.397.848-.623 1.258-.332.605-.7 1.192-1.017 1.804-.382.74-.729 1.497-1.089 2.248-.092.194-.147.412-.27.582-.347.481-.493 1.06-.806 1.564-.36.583-.552 1.271-.811 1.915-.05.125-.085.26-.11.392-.083.456-.146.916-.239 1.37a4.192 4.192 0 0 0 .19 2.293c.265.7.647 1.428 1.307 1.921.464.348.965.648 1.537.636.551-.011 1.1.05 1.652-.316.776-.514 1.507-1.011 2.056-1.796.432-.615.78-1.264.96-1.965.324-1.266.261-2.588.39-3.885.01-.093-.04-.191-.047-.288a23.64 23.64 0 0 1-.05-.873c-.024-.676-.018-1.354-.07-2.028-.04-.501-.18-.994-.228-1.495-.073-.779-.222-1.532-.523-2.26-.272-.657-.443-1.348-.12-2.034.28-.593.607-1.16.55-1.851a.408.408 0 0 1 .058-.224c.538-.908.507-1.943.657-2.936.128-.84.225-1.686.326-2.453l2.032-.659c.038.182.086.322.093.464.028.52.065 1.04.055 1.559-.013.688.185 1.333.318 1.995.087.43.24.814.443 1.193.198.37.367.754.824.88a.256.256 0 0 1 .134.11c.29.48.768.438 1.228.449.131.002.273-.035.393.002.442.137.831-.075 1.18-.243.518-.248.981-.615 1.457-.947.13-.092.232-.23.332-.359.35-.448.694-.901 1.089-1.415l.813.943c.592.247 1.156.41 1.639.705.503.307.995.321 1.513.18.236-.065.432-.074.674-.02.652.147 1.3-.005 1.84-.35.387-.246.78-.564.962-1.043.024-.065.153-.09.264-.151.144.213.34.387.382.593.08.39.33.564.655.672.31.103.626.23.945.247.459.024.942.064 1.343-.27.086-.072.215-.089.317-.144.721-.387 1.557-.606 2.013-1.386a.801.801 0 0 1 .292-.277c.822-.46 1.23-1.242 1.585-2.053.154-.35.398-.591.699-.868.066.122.132.198.148.283.082.437.1.893.234 1.311.268.838.67 1.62 1.317 2.233.257.243.587.518.91.556.531.064 1.123.022 1.588-.272.565-.357 1.295-.503 1.623-1.207.076-.163.326-.245.533-.39.27.287.519.523.732.787.33.407.634.833 1.224.867.036.002.07.033.104.054.273.177.585.156.841.033.426-.203.823-.199 1.212.002l1.48-.774c.17.195.354.394.522.606.21.265.452.374.808.355.343-.017.69.107 1.038.122.285.012.588.003.854-.083.823-.266 1.36-.942 2.007-1.461.499-.4.775-.964 1.12-1.474.28-.416.496-.878.722-1.329.137-.273.169-.636.37-.833.559-.548.66-1.312 1.035-1.939.252-.42.379-.935.855-1.263.266.55.577 1.02.466 1.663-.095.549-.059 1.12-.09 1.68-.015.251-.071.501-.08.753-.023.548.057 1.091-.149 1.64-.07.189-.05.48-.07.723-.025.332-.239.665.007 1.018.394.566.883.678 1.639.336.222-.1.31-.243.335-.49.04-.403.124-.804.22-1.198.209-.849.473-1.685.646-2.54.178-.877.34-1.75.746-2.557.182-.36.363-.72.549-1.078.01-.02.069-.014.185-.035.057.228.147.46.168.697.041.463.02.931.071 1.392.044.4.185.79.224 1.19.091.925.467 1.746.868 2.562.025.052.06.117.106.135.356.14.59.506 1.004.534.513.034 1.062.236 1.508-.158.5-.441 1.256-.563 1.555-1.25.007-.016.032-.023.048-.033.805-.515 1.202-1.344 1.642-2.14l.375-.672.143.025c.076 1.668.444 3.255 1.288 4.702.165.183.4.342.547.56.267.397.618.52 1.07.494.41-.022.749-.179 1.056-.438.132-.11.272-.263.426-.287.676-.108 1.047-.65 1.51-1.044.342-.29.59-.692.933-1.11.231.141.5.281.741.46.496.37.95.8 1.625.827.56.022 1.136-.062 1.672.193.047.023.119.015.173 0 .775-.208 1.63-.219 2.207-.914.109-.13.293-.204.387-.342.563-.825.355-1.76.286-2.65-.02-.27-.188-.564-.216-.875a2.153 2.153 0 0 0-.187-.669c-.446-1.001-1.234-1.71-2.085-2.353-.306-.231-.62-.493-.973-.61-.416-.139-.563-.368-.54-.765.011-.174.042-.348.049-.523.026-.71.136-1.426-.482-2-.354-.329-1.008-.296-1.238.127-.102.188-.183.397-.324.551-.428.47-.499.972-.264 1.556.13.32.247.669-.075.977-.061.058-.093.177-.09.267.019.484-.318.929-.156 1.43.014.046-.022.113-.043.167-.126.323-.247.647-.384.964-.104.24-.23.472-.37.755-.253-.13-.466-.192-.618-.325-.277-.242-.594-.232-.883-.137-.169.056-.34.261-.403.437-.07.197-.016.436-.016.708.488.168.574.558.533 1.09-.028.362-.17.607-.346.893-.54.878-1.229 1.234-2.214 1.076-.607-.881-.81-1.386-.981-2.808-.106-.881-.1-1.774-.014-2.66.056-.58.152-1.158.214-1.738.088-.815.16-1.631.24-2.447l.31-3.185c.055-.557.112-1.114.174-1.728.401-.045.758-.095 1.116-.122.328-.024.682.05.982-.049 1.226-.404 2.456-.147 3.686-.091a.335.335 0 0 1 .162.066c.546.375 1.197.292 1.803.393.182.03.425-.054.582-.167.463-.332.553-.887.286-1.39-.136-.256-.298-.517-.352-.796-.071-.362-.311-.524-.6-.543-.433-.029-.888-.11-1.287.232-.156.133-.433.134-.659.175-.13.023-.278-.03-.399.011-.901.302-1.831.222-2.755.236-.15.002-.298.044-.447.07-.46.077-.919.18-1.383.228-.37.038-.75-.242-.746-.561.005-.54.066-1.08.112-1.62.033-.384.136-.772.1-1.148-.026-.268-.225-.523-.362-.775-.03-.054-.136-.104-.198-.095-.268.037-.55.057-.792.162-.153.067-.359.285-.345.414.04.355-.063.666-.133.998-.04.19.054.41.088.616.012.073.06.16.035.215-.216.457-.207.945-.217 1.43-.005.273-.169.528-.384.521-.524-.017-1.008.248-1.542.14-.669-.136-1.127.257-1.162.912-.023.438.129.763.52.961.414.211.82.376 1.23-.042.256-.261.575-.309.935-.085-.018.925-.017 1.856-.065 2.785-.022.424-.138.843-.22 1.263-.102.519-.28 1.024-.262 1.564a.962.962 0 0 1-.057.343c-.199.558-.41 1.112-.611 1.669-.06.163-.142.331-.147.5-.017.525-.278.947-.525 1.38-.097.167-.173.346-.258.52-.084.17-.15.351-.254.508-.322.485-.69.942-.982 1.443-.33.566-.813.936-1.368 1.235-.459.247-.843.09-1.01-.402-.043-.124-.031-.29-.111-.372-.275-.278-.287-.629-.332-.975-.025-.193-.004-.414-.092-.572-.13-.232-.118-.438-.061-.674.025-.105-.005-.224-.013-.336-.042-.618-.083-1.236-.13-1.854-.026-.326-.04-.657-.102-.977-.07-.361-.187-.713-.276-1.04-.72-.617-1.422-.602-2.122.081.072.359-.077.654-.353.911-.155.145-.329.313-.392.504-.176.526-.283 1.075-.447 1.605-.064.207-.208.389-.315.583-.21-.497-.234-.99-.402-1.43-.253-.662-.582-1.299-.923-1.923-.316-.582-.992-.574-1.376-.03-.2.283-.292.64-.494.893-.346.432-.63.881-.852 1.383-.068.154-.225.265-.317.41a5.15 5.15 0 0 0-.322.605c-.089.194-.148.4-.227.598-.277.695-.766 1.278-1.022 1.996-.113.317-.196.767-.634.916-.053.018-.062.14-.11.198-.595.71-1.116 1.512-2.081 1.781a3.05 3.05 0 0 1-.855.11c-.123-.001-.243-.154-.394-.257.293-.39.56-.737.819-1.09.193-.263.385-.528.562-.802.169-.26.327-.53.475-.803.22-.408.463-.81.634-1.24.19-.483.34-.986.457-1.492.212-.908.405-1.82.566-2.738.036-.209-.085-.447-.14-.67-.036-.15-.084-.296-.096-.339-.203-.18-.324-.314-.47-.41-.254-.168-.53-.446-.786-.436-.45.017-.928.094-1.32.408-.344.275-.746.478-1.084.76-.631.527-1.432.927-1.54 1.887-.005.035-.048.064-.059.1-.13.423-.308.838-.373 1.271-.098.647-.117 1.306-.167 1.96a.747.747 0 0 0 .012.17c.108.705.202 1.412.331 2.113.062.34-.046.605-.311.759-.416.24-.848.499-1.306.603-.395.09-.881.066-1.215-.237-.712-.645-.85-1.408-.372-2.246.175-.307-.042-.57.077-.847.118-.277.433-.477.34-.839-.005-.018-.014-.039-.01-.057.052-.303.01-.685.18-.895.444-.55.46-1.189.432-1.798-.049-1.005.271-.995-.893-1.304-.018-.005-.034-.018-.053-.025-.415-.157-.556-.137-.808.198-.338.452-.568.953-.753 1.495-.151.443-.192.9-.326 1.34-.067.22-.162.434-.205.658-.13.677-.078 1.367-.294 2.052-.171.54-.399.978-.801 1.35-.129.12-.29.235-.353.387-.212.503-.705.605-1.12.76-.196.073-.588-.053-.726-.223-.236-.29-.435-.673-.484-1.04-.113-.842-.463-1.64-.41-2.517.058-.982-.128-1.97.142-2.953.122-.444.165-.935.115-1.39a2.548 2.548 0 0 1 .017-.796c.065-.324.153-.652.156-.979.009-.775.422-1.497.285-2.288-.011-.066.029-.163.077-.214.213-.224.19-.499.197-.771.005-.174.021-.348.038-.522.06-.58.075-1.17.196-1.737.085-.395-.104-.882.312-1.126.022-.676-.453-.996-.846-1.427-.178.07-.368.168-.57.22-.376.096-.523.4-.603.709-.097.37-.1.762-.159 1.143-.065.42-.162.836-.22 1.258-.047.342-.07.69-.078 1.037-.01.441.094.88-.058 1.325-.085.253-.07.541-.098.813-.053.515-.101 1.031-.157 1.546-.026.246 0 .524-.11.725-.147.269-.255.49-.174.813.063.25-.167.395-.415.295-.1-.042-.173-.147-.268-.21-.362-.235-.765-.43-1.188-.334-.332.076-.64.121-.975.074a.757.757 0 0 0-.401.047 26.35 26.35 0 0 0-1.675.816c-.25.136-.432.398-.68.538-.708.4-1.068 1.12-1.597 1.681-.038.04-.055.103-.075.158-.267.71-.536 1.42-.796 2.132-.234.64-.407 1.291-.392 1.985.006.291-.044.584-.082.875a.496.496 0 0 1-.584.415c-.129-.026-.252-.077-.325-.1-.283.205-.496.46-.755.524-.372.092-.772.051-1.087.348-.06.056-.223.014-.337 0-.596-.072-1.19-.178-1.79-.22-.857-.058-1.493-.68-1.536-1.587.555-.293 1.121-.587 1.683-.89.471-.256.794-.651 1.096-1.091.255-.371.32-.784.442-1.19.072-.237.256-.507.198-.707-.226-.786.072-1.688-.525-2.389a.253.253 0 0 1-.046-.167c.03-.455-.315-.65-.617-.851-.191-.127-.433-.175-.649-.265-.252-.106-.477-.083-.724.051-.897.49-1.455 1.282-1.888 2.158-.23.464-.35.988-.478 1.495-.08.313-.063.65-.13.968-.056.257-.163.505-.265.75-.162.388-.493.777-.475 1.153.035.76-.272 1.428-.516 2.067-.293.765-.743 1.575-1.759 1.688-.093.01-.183.069-.266.119-.57.34-1.628-.246-1.78-.707a7.568 7.568 0 0 1-.32-1.408 6.494 6.494 0 0 1-.017-1.288c.08-1.106.14-2.218.586-3.26.053-.123.105-.261.1-.391-.021-.696.112-1.38.035-2.088-.064-.586-.409-.861-.813-1.116-.326-.206-1.036.098-1.119.477-.074.337-.128.708-.064 1.04.164.863-.258 1.446-.826 1.98a.667.667 0 0 1-.255.128c-.276.087-.556.162-.832.247-.278.086-.387.003-.41-.298-.011-.164.005-.39-.09-.478-.306-.28-.742-.455-1.108-.36-.522.138-.794.645-1.048 1.109-.016.03-.013.08-.004.115.125.436-.013.952.41 1.303.074.063.107.213.106.323-.01.732.008 1.466-.12 2.194-.163.917-.292 1.84-.466 2.755-.073.382-.079.836-.635 1.011-.088-.241-.147-.482-.259-.695-.354-.676-.656-1.36-.694-2.14-.015-.319-.164-.633-.167-.95-.004-.524.053-1.049.098-1.573.058-.663-.283-1.157-.69-1.613a.61.61 0 0 0-.418-.179c-.609.014-.85-.447-1.172-.839" mask="url(#h)"/></g><g transform="rotate(4 85.55 437.146)"><mask id="j" fill="#fff"><use xlink:href="#i"/></mask><path fill="#000" d="M19.685 28.232l.096-.033-.094-.283-.105.038.103.278m36.549-13.056c-.34-.132-.534-.08-.673.17-.256.459-.6.885-.762 1.373-.144.43-.318.925-.028 1.485.407-.267.788-.503 1.15-.766.073-.052.07-.207.103-.314.062-.198.126-.396.186-.595.043-.144.117-.292.113-.436-.007-.305-.057-.61-.09-.917m28.232-1.726c-.684.114-.876.906-1.542.979-.025.002-.05.056-.067.091-.186.4-.436.783-.539 1.203a10.62 10.62 0 0 0-.306 2.008c-.019.393-.037.827.149 1.28.124-.14.216-.216.272-.312.24-.414.473-.833.704-1.254.203-.37.414-.738.592-1.12.103-.22.097-.503.229-.696.329-.484.382-1.04.501-1.58.043-.192.007-.4.007-.6m26.483 5.67c.225.107.46.26.718.33.259.07.54.056.81.079.04.003.082-.002.117.012.615.248 1.214-.003 1.817-.067.334-.036.495-.252.547-.587.084-.545.126-1.093-.054-1.616-.142-.41-.293-.833-.803-.988-.247-.076-.54-.237-.658-.447-.195-.348-.524-.509-.794-.748-.318-.282-.55-.213-.692.199-.06.18-.064.38-.086.57-.012.112.021.237-.019.333-.163.394-.354.775-.52 1.168-.23.547-.78 1.016-.383 1.762m-76.344 5.422c.25-.08.505-.151.753-.24.2-.073.386-.218.588-.24.454-.046.793-.34.998-.643.594-.878 1.226-1.74 1.402-2.853.08-.512-.002-.857-.34-1.208a2.85 2.85 0 0 1-.449-.659c-.156-.299-.4-.465-.738-.444a2.07 2.07 0 0 0-.942.27c-.602.352-1.22.704-1.688 1.212-.552.598-.854 1.335-.765 2.192.049.464.05.933.061 1.4.02.795.294 1.196 1.12 1.213m32.846-10.34c-.103.029-.195.062-.29.08-.814.148-1.432.689-2.118 1.085-.243.141-.375.46-.69.565-.105.034-.176.202-.238.322-.257.494-.53.983-.749 1.494a16.14 16.14 0 0 0-.54 1.545c-.21.674 0 1.354.017 2.03.003.148.076.302.149.437.05.093.141.201.235.227.42.118.853.332 1.248-.078a.511.511 0 0 1 .262-.125c.542-.104.895-.522 1.247-.863.368-.357.823-.67.996-1.234.09-.292.413-.507.605-.775.328-.456.657-.9.55-1.537-.035-.214.108-.495.245-.694.261-.38.316-.824.436-1.245.046-.161-.044-.375-.107-.553-.215-.603-.797-.528-1.258-.68M41.277 29.573l-.164-.014c-.322.63-.65 1.255-.965 1.889-.275.552-.483 1.145-.813 1.66-.305.475-.503.98-.702 1.497-.102.267-.244.52-.367.779-.166.35-.377.684-.486 1.05-.226.76-.352 1.55-.602 2.299-.283.846.24 1.497.48 2.195.154.451 1.092.65 1.56.444a4.408 4.408 0 0 0 2.138-1.997c.415-.785.363-1.708.34-2.59-.007-.288-.043-.556.103-.845.113-.223.11-.523.097-.786-.037-.768-.136-1.535-.153-2.303-.014-.688.085-1.376-.151-2.052-.139-.397-.212-.817-.315-1.226M37.948 16.5c.322.392.563.853 1.172.839a.61.61 0 0 1 .418.179c.407.456.748.95.69 1.613-.045.524-.102 1.05-.098 1.573.003.317.151.631.167.95.038.78.34 1.464.694 2.14.112.213.17.454.259.695.556-.175.562-.63.635-1.011.174-.915.303-1.838.466-2.755.128-.728.11-1.462.12-2.194 0-.11-.032-.26-.107-.323-.422-.351-.284-.867-.408-1.303-.01-.036-.013-.085.003-.115.253-.464.526-.971 1.048-1.108.366-.096.802.079 1.107.359.096.089.08.314.092.478.022.3.13.384.409.298.276-.085.556-.16.832-.247a.666.666 0 0 0 .255-.127c.568-.535.99-1.118.826-1.98-.064-.333-.01-.704.064-1.041.083-.379.793-.683 1.12-.477.403.255.748.53.812 1.116.077.707-.057 1.392-.034 2.088.004.13-.048.268-.1.391-.448 1.042-.507 2.154-.587 3.26a6.52 6.52 0 0 0 .018 1.288c.06.476.167.953.318 1.408.153.461 1.21 1.047 1.78.707.084-.05.175-.109.267-.119 1.016-.113 1.466-.923 1.76-1.688.243-.639.55-1.306.515-2.067-.018-.376.313-.765.475-1.153.102-.245.21-.493.265-.75.067-.318.05-.655.13-.968.129-.507.248-1.031.478-1.495.433-.876.99-1.669 1.888-2.158.247-.134.472-.156.724-.051.216.09.458.138.649.265.302.2.647.396.616.851a.256.256 0 0 0 .047.167c.597.7.299 1.602.525 2.389.058.2-.126.47-.198.708-.123.405-.187.818-.442 1.189-.302.44-.625.835-1.096 1.09-.562.304-1.128.598-1.683.891.043.907.679 1.529 1.537 1.588.598.04 1.193.148 1.79.22.113.014.276.055.336-.001.316-.297.714-.256 1.087-.348.26-.064.472-.32.754-.525.074.024.197.075.325.101a.495.495 0 0 0 .585-.415c.038-.29.088-.584.082-.875-.016-.694.158-1.345.392-1.985.26-.713.53-1.422.796-2.132.02-.055.037-.118.075-.158.53-.562.889-1.28 1.597-1.68.248-.141.43-.403.68-.54.544-.297 1.11-.556 1.674-.815a.758.758 0 0 1 .402-.047c.334.047.643.002.975-.074.423-.097.826.099 1.187.335.095.061.168.167.27.209.246.1.476-.045.414-.296-.08-.323.027-.544.174-.812.11-.2.084-.48.11-.725.055-.515.104-1.03.157-1.546.028-.272.012-.56.099-.813.151-.445.047-.883.057-1.325.007-.346.031-.694.078-1.038.058-.42.155-.836.22-1.257.06-.38.062-.774.159-1.143.08-.309.227-.613.603-.709.202-.052.392-.15.57-.22.393.43.868.751.846 1.427-.416.244-.227.73-.311 1.126-.122.567-.138 1.157-.197 1.737a7.087 7.087 0 0 0-.038.521c-.008.273.016.548-.197.772a.289.289 0 0 0-.077.214c.137.792-.276 1.513-.284 2.288-.004.327-.092.655-.157.98a2.548 2.548 0 0 0-.017.795c.05.455.007.946-.115 1.39-.27.982-.084 1.97-.143 2.953-.052.876.298 1.674.411 2.517.05.367.248.75.484 1.04.138.17.53.296.726.223.416-.156.908-.257 1.12-.76.063-.152.224-.268.353-.387.402-.372.63-.81.8-1.35.217-.685.166-1.375.295-2.052.043-.224.138-.439.205-.659.134-.439.174-.896.326-1.34.184-.54.414-1.043.753-1.494.252-.335.393-.355.808-.198.018.007.035.02.053.025 1.164.31.844.3.893 1.304.029.609.012 1.248-.432 1.798-.17.21-.128.592-.18.895-.004.018.005.039.01.057.093.362-.222.562-.34.839-.119.277.098.54-.077.846-.479.839-.34 1.602.372 2.247.334.303.82.327 1.215.237.458-.104.89-.363 1.306-.603.265-.154.373-.42.311-.76-.129-.7-.223-1.407-.33-2.112a.734.734 0 0 1-.013-.17c.05-.654.069-1.313.166-1.96.066-.432.244-.848.374-1.27.011-.037.054-.066.058-.101.109-.96.91-1.36 1.542-1.887.337-.282.739-.485 1.083-.76.392-.314.87-.39 1.32-.408.257-.01.532.268.786.436.146.096.267.23.47.41.012.043.06.19.096.339.055.223.176.46.14.67-.161.917-.354 1.83-.566 2.738-.118.506-.266 1.01-.457 1.492-.17.43-.413.832-.634 1.24a11.58 11.58 0 0 1-.475.803c-.178.274-.37.54-.562.802-.26.353-.526.7-.819 1.09.15.104.271.256.394.258.285.003.58-.034.855-.111.965-.269 1.486-1.071 2.08-1.781.049-.058.058-.18.11-.198.44-.149.522-.599.635-.916.256-.718.745-1.3 1.022-1.996.079-.198.139-.404.227-.598a5.14 5.14 0 0 1 .322-.604c.092-.146.249-.258.317-.41a6.23 6.23 0 0 1 .852-1.383c.202-.254.294-.61.494-.894.384-.544 1.06-.552 1.376.03.34.624.67 1.261.923 1.924.168.439.193.932.402 1.429.107-.194.25-.376.315-.583.164-.53.271-1.079.447-1.605.063-.191.237-.36.392-.504.276-.257.425-.552.353-.911.7-.683 1.402-.698 2.122-.08.089.326.206.678.276 1.039.062.32.076.65.101.978.048.617.089 1.235.131 1.853.008.112.038.231.013.337-.057.235-.069.441.06.673.089.158.068.379.093.572.045.346.057.697.332.975.08.081.068.249.11.372.168.493.552.65 1.01.402.556-.299 1.038-.669 1.369-1.234.293-.502.66-.96.982-1.444.104-.157.17-.338.254-.508.085-.174.161-.353.258-.52.248-.433.508-.855.525-1.38.006-.169.087-.336.147-.5.201-.557.412-1.111.611-1.67a.956.956 0 0 0 .057-.342c-.018-.54.16-1.045.261-1.564.083-.42.199-.84.221-1.263.048-.929.047-1.86.065-2.785-.36-.224-.679-.176-.935.085-.41.418-.816.253-1.23.043-.392-.2-.544-.524-.52-.962.035-.655.493-1.047 1.162-.912.534.108 1.018-.157 1.542-.14.215.007.379-.248.384-.52.01-.486 0-.975.217-1.431.026-.054-.023-.142-.035-.214-.034-.207-.128-.426-.088-.617.07-.332.172-.643.133-.998-.014-.129.192-.347.345-.414.243-.105.524-.125.792-.162.062-.008.168.04.198.095.137.252.336.507.362.775.036.376-.067.764-.1 1.148-.046.54-.107 1.08-.112 1.62-.003.319.376.599.746.56.464-.047.923-.15 1.383-.228.15-.025.297-.067.447-.07.924-.013 1.854.067 2.755-.235.12-.04.27.012.4-.011.225-.04.502-.042.658-.175.4-.342.854-.26 1.288-.232.288.019.528.18.599.543.054.278.216.54.352.796.267.503.177 1.058-.286 1.39-.157.113-.4.197-.582.167-.606-.1-1.257-.018-1.803-.394a.338.338 0 0 0-.162-.065c-1.23-.056-2.46-.313-3.686.091-.3.1-.654.025-.982.05-.358.026-.715.076-1.116.12-.062.615-.119 1.172-.173 1.73-.105 1.06-.208 2.122-.312 3.184-.079.816-.151 1.632-.239 2.447-.062.58-.158 1.157-.214 1.738-.087.886-.092 1.779.014 2.66.17 1.422.374 1.926.98 2.808.986.157 1.675-.198 2.216-1.076.176-.286.317-.53.345-.892.041-.533-.045-.923-.533-1.091 0-.272-.053-.512.016-.708.062-.176.234-.381.403-.437.29-.095.606-.105.883.137.152.133.365.196.618.325.14-.283.265-.514.37-.755.137-.317.258-.641.384-.963.02-.055.058-.122.043-.168-.162-.501.174-.946.157-1.43-.004-.09.028-.21.089-.267.322-.308.205-.656.075-.977-.235-.584-.164-1.087.265-1.556.14-.154.221-.363.323-.551.23-.423.884-.455 1.238-.127.618.574.508 1.29.482 2-.006.175-.038.348-.048.523-.024.397.123.626.539.765.353.117.667.379.973.61.852.643 1.638 1.352 2.085 2.354.094.21.167.441.187.668.028.311.196.605.216.875.068.89.277 1.825-.286 2.65-.094.138-.278.211-.387.342-.577.695-1.432.706-2.207.914-.055.015-.126.023-.173 0-.536-.254-1.112-.17-1.672-.193-.676-.027-1.13-.458-1.625-.827-.24-.179-.51-.319-.74-.46-.345.418-.592.82-.934 1.11-.463.394-.834.936-1.51 1.043-.154.025-.295.177-.426.288a1.74 1.74 0 0 1-1.055.438c-.453.025-.804-.097-1.07-.494-.147-.218-.383-.377-.548-.56-.844-1.447-1.213-3.034-1.287-4.702l-.144-.025-.375.673c-.44.795-.837 1.623-1.642 2.138-.016.011-.041.018-.048.034-.299.687-1.055.809-1.555 1.25-.446.394-.995.192-1.508.158-.414-.028-.648-.394-1.004-.534-.046-.018-.081-.084-.106-.135-.401-.816-.777-1.637-.868-2.563-.039-.4-.18-.79-.224-1.19-.05-.46-.03-.928-.071-1.39-.022-.238-.111-.47-.168-.698-.116.02-.175.015-.185.035-.186.358-.367.718-.549 1.078-.407.806-.568 1.68-.746 2.556-.173.856-.437 1.692-.646 2.541a8.886 8.886 0 0 0-.22 1.198c-.025.247-.113.389-.335.49-.756.342-1.245.23-1.639-.336-.246-.353-.032-.687-.006-1.017.018-.244-.002-.535.07-.724.205-.548.125-1.092.147-1.64.01-.252.066-.502.08-.753.032-.56-.004-1.131.09-1.68.112-.643-.199-1.113-.465-1.663-.476.328-.603.842-.855 1.263-.374.627-.476 1.391-1.035 1.939-.201.197-.233.56-.37.833-.226.451-.441.913-.722 1.329-.345.51-.621 1.073-1.12 1.474-.647.52-1.184 1.195-2.007 1.461-.266.086-.57.095-.854.083-.347-.015-.695-.14-1.038-.122-.356.019-.599-.09-.808-.355-.168-.212-.353-.41-.522-.606l-1.48.774c-.39-.201-.786-.205-1.212-.002-.256.123-.568.144-.842-.033-.032-.021-.067-.052-.103-.054-.59-.034-.894-.46-1.223-.867-.214-.264-.464-.5-.733-.787-.207.145-.457.227-.533.39-.328.704-1.058.85-1.623 1.207-.465.294-1.057.336-1.587.272-.324-.039-.654-.313-.911-.556-.647-.612-1.049-1.395-1.317-2.233-.134-.418-.152-.874-.234-1.31-.016-.086-.082-.162-.148-.284-.3.277-.545.517-.699.868-.356.81-.762 1.594-1.585 2.053a.8.8 0 0 0-.292.277c-.456.78-1.292 1-2.013 1.386-.102.055-.231.072-.317.144-.401.333-.884.294-1.343.27-.319-.018-.635-.144-.944-.247-.326-.108-.577-.281-.656-.672-.042-.206-.238-.38-.382-.593-.111.06-.24.086-.264.15-.182.48-.575.798-.962 1.044-.54.345-1.188.496-1.84.35a1.296 1.296 0 0 0-.674.02c-.518.141-1.01.127-1.513-.18-.483-.295-1.047-.457-1.64-.705l-.812-.943c-.395.514-.738.967-1.09 1.415-.1.128-.2.267-.331.359-.476.331-.938.699-1.456.948-.35.167-.74.379-1.18.242-.12-.037-.263 0-.394-.002-.46-.01-.938.03-1.229-.45a.256.256 0 0 0-.133-.109c-.457-.126-.626-.51-.824-.88a4.267 4.267 0 0 1-.443-1.194c-.133-.661-.33-1.306-.318-1.994.01-.52-.027-1.04-.055-1.56-.007-.141-.055-.281-.093-.463l-2.032.659c-.1.767-.198 1.613-.325 2.453-.151.993-.12 2.028-.658 2.936a.408.408 0 0 0-.059.224c.058.69-.269 1.258-.549 1.851-.323.686-.152 1.377.12 2.035.3.727.45 1.48.524 2.26.047.5.187.993.226 1.494.053.674.047 1.352.071 2.028.01.291.029.583.05.874.007.096.056.194.047.287-.13 1.296-.066 2.619-.39 3.885-.18.7-.528 1.35-.96 1.965-.55.785-1.28 1.282-2.056 1.796-.551.365-1.1.305-1.652.316-.572.012-1.073-.288-1.537-.635-.66-.494-1.042-1.222-1.307-1.922a4.193 4.193 0 0 1-.19-2.294c.093-.453.156-.913.24-1.369.024-.133.059-.267.109-.392.259-.644.45-1.332.811-1.914.313-.506.459-1.084.806-1.565.123-.17.178-.388.27-.582.36-.75.707-1.508 1.09-2.248.316-.612.684-1.199 1.016-1.804.226-.41.475-.818.623-1.258.077-.23-.021-.53-.075-.792-.039-.187-.157-.356-.203-.543-.146-.603-.263-1.209-.662-1.72-.11-.14-.12-.362-.172-.548-.041-.144-.077-.29-.135-.51-.163.101-.289.146-.365.234-.137.158-.227.358-.369.51-.207.22-.384.462-.693.599-.266.118-.47.383-.693.59-.28.259-.57.494-.964.55-.038.005-.09-.017-.114.002-.471.374-1.056.15-1.564.3-.402.119-.715-.052-1.043-.208-.227-.108-.44-.246-.672-.34-.297-.122-.372-.055-.527.247-.103.198-.236.448-.42.526-.661.282-1.099.849-1.676 1.226-.474.31-.893.753-1.544.724-.201-.01-.413.107-.612.186-.827.33-1.397-.029-1.77-.738-.27-.513-.39-1.08-.501-1.664-.218-1.145-.243-2.34-.746-3.425-.067-.145-.073-.32-.116-.525-.109.047-.239.062-.295.135-.221.289-.42.596-.627.896-.033.048-.06.105-.105.139-.574.447-.838 1.11-1.192 1.709-.03.05-.042.122-.084.152-.524.372-.498.89-.377 1.427.156.688.065 1.365-.09 2.035-.099.434-.625.703-1.067.54-.232-.086-.446-.235-.654-.376-.397-.27-.577-.26-.936.048-.189.163-.39.315-.598.452-.092.061-.231.128-.32.1a.95.95 0 0 0-.78.087c-.096.05-.267.001-.39-.043-.594-.216-1.139-.188-1.63.26a.786.786 0 0 1-.36.162c-.337.07-.68.11-1.017.18a7.93 7.93 0 0 0-.842.228 1.909 1.909 0 0 0-.464.228c-.415.28-.789.584-1.372.5-.258-.038-.571.204-.84.355-.692.39-1.363.82-2.134 1.052a.772.772 0 0 0-.251.143c-.62.5-1.336.872-1.786 1.584-.38.601-.967.632-1.43.167-.427-.43-.344-1.067.18-1.384.067-.04.172-.06.199-.118.218-.458.647-.639 1.059-.856.254-.134.478-.324.729-.464 1.06-.594 2.123-1.178 3.09-1.712.099-.388.148-.69.255-.97a.987.987 0 0 0 .047-.614c-.101-.457-.153-.927.11-1.365.033-.055.048-.157.019-.206-.21-.345-.082-.709-.043-1.054.036-.313.091-.588-.258-.73.195-.564.1-1.106.06-1.644-.034-.455-.091-.907-.124-1.362-.03-.426.048-.882-.08-1.273-.275-.844-.15-1.726-.334-2.573-.044-.203.001-.424-.034-.63-.212-1.226-.435-2.45-.653-3.668-.257-.19-.446-.024-.65.09-.418.234-.81.548-1.34.483a.264.264 0 0 0-.166.052c-.874.623-1.903.945-2.833 1.46-.356.198-.725.393-1.112.511-.766.234-1.388.684-1.986 1.186-.655.55-1.063.403-1.247-.45-.147-.686.015-.957.684-1.238.537-.225 1.057-.487 1.587-.727.684-.311 1.351-.674 2.06-.91.82-.275 1.475-.842 2.267-1.152.248-.097.489-.248.745-.281.81-.105 1.43-.61 2.133-.94.229-.108.462-.208.702-.286.618-.2 1.223-.42 1.811-.706.693-.338 1.445-.557 2.124-.917.559-.295 1.079-.686 1.557-1.102.347-.302.779-.315 1.155-.495.066-.031.22.058.299.13.158.143.292.312.438.469.202.218.409.392.745.4.209.004.414.141.648.23-.21.619-.339 1.17-.727 1.629-.135.161-.276.26-.435.2-.464-.18-1.021-.117-1.378-.531-1.909.503-3.68 1.294-5.453 2.13-.01.602-.215 1.175.102 1.728.028.049.04.112.042.17.034 1.225.378 2.407.513 3.619.032.29.048.583.075.874.018.19.04.381.067.571.013.094.086.2.06.277-.156.468-.022.88.182 1.297a.674.674 0 0 1 .035.448c-.12.41-.127.79.04 1.198.108.263.11.571.154.86.111.75.212 1.5.33 2.248.106.665.229 1.327.35 1.99.02.11.071.216.111.333a2.507 2.507 0 0 0 1.538-.271c.204-.107.437-.16.658-.232.274-.088.576-.124.819-.264.452-.26.879-.567 1.299-.877.498-.369 1-.321 1.537-.105.24.097.51.122.823.192.012-.213.021-.342.027-.47.01-.213-.018-.435.032-.637a4.96 4.96 0 0 0 .064-2.224c-.072-.352-.046-.738.002-1.1.084-.636-.167-1.275.054-1.914.063-.182-.027-.422-.062-.633-.136-.829.43-1.339 1.224-1.1.282.086.58.68.542 1.09-.05.56-.098 1.118-.163 1.674-.024.21-.117.412-.131.62-.01.153.057.312.116.592.28-.285.435-.525.655-.651.484-.278.623-.749.82-1.209.11-.253.293-.482.476-.694.285-.332.598-.64.876-.934.343.019.65.026.954.057.13.012.3.034.376.12.36.398.715.803.772 1.381.036.365.12.726.177 1.089.066.421.164.842.18 1.265.015.416.107.766.43.981-.32.876.116 1.52.515 2.222l.738-.047c.013-.56.351-.842.79-1.074.15-.079.222-.307.257-.359.446-.26.82-.426 1.122-.678.154-.129.19-.41.258-.628.027-.088-.045-.24.002-.283.418-.383.26-.862.228-1.312-.016-.235.084-.365.252-.484.44-.311.646-.758.763-1.27.203-.88.73-1.55 1.375-2.166.523-.498 1.064-.956 1.703-1.287.412-.213.85-.379 1.276-.565.018-.008.043-.022.055-.015.475.24.943-.134 1.446.01" mask="url(#j)"/></g><path fill="#000" d="M88.453 4.53c.166-.195.343-.357.464-.554.32-.525.853-.716 1.384-.871.256-.075.513.054.644.372.15.365.337.693-.002 1.055-.066.07-.027.23-.067.337-.12.316-.154.676-.518.864-.12.062-.18.242-.265.37-.348.532-.679 1.08-1.293 1.359-.004.065-.03.133-.009.179.23.504-.133.888-.287 1.3-.124.327-.97.509-1.255.318a.345.345 0 0 1-.14-.233 1.475 1.475 0 0 1 .05-.517c.237-.718.502-1.427.737-2.145.204-.622.381-1.253.557-1.834m18.683 3.407c.203.047.383.134.553.118.247-.025.383.108.47.274.21.406.393.828.574 1.25.021.05-.06.136-.063.207-.01.144-.058.347.016.425.286.303.186.56-.018.835-.057.077-.097.166-.173.3-.219-.015-.449-.028-.678-.048-.243-.021-.456-.083-.564-.343-.12-.286-.354-.335-.643-.25-.366-.428-.393-.975-.461-1.473-.052-.376.157-.755.54-.973.16-.092.302-.216.447-.322"/><path fill="#FFF" d="M69.816 27.478c.074.416.118.84.228 1.245.189.691.042 1.37.008 2.058-.037.768.008 1.539-.008 2.308-.005.263-.023.563-.151.777-.167.278-.15.548-.163.837-.038.881-.05 1.805-.52 2.559a4.408 4.408 0 0 1-2.27 1.843c-.482.172-1.404-.091-1.527-.552-.191-.713-.666-1.399-.325-2.223.301-.73.482-1.51.76-2.251.134-.357.369-.677.558-1.014.142-.25.3-.492.421-.752.235-.5.468-.991.805-1.444.365-.49.614-1.067.926-1.6.358-.609.73-1.21 1.095-1.816l.163.025m27.181-13.509c.45.184 1.035.15 1.207.767.051.181.126.401.069.56-.15.41-.235.849-.522 1.21-.15.19-.313.46-.292.676.061.642-.298 1.063-.656 1.495-.21.253-.548.445-.658.73-.212.55-.688.831-1.08 1.162-.375.315-.756.708-1.304.774a.513.513 0 0 0-.27.107c-.423.38-.84.137-1.25-.01-.092-.032-.176-.146-.22-.243-.062-.14-.124-.298-.118-.446.031-.676-.13-1.369.125-2.027.197-.508.4-1.018.647-1.502.253-.496.56-.964.851-1.44.07-.114.154-.277.26-.304.322-.082.476-.391.728-.515.712-.347 1.366-.844 2.188-.935.096-.011.19-.038.295-.059M63.51 21.993c-.823-.075-1.069-.495-1.033-1.29.021-.466.053-.934.038-1.4-.03-.86.323-1.575.916-2.133.502-.474 1.142-.782 1.768-1.091.312-.154.624-.205.958-.204.34.002.57.186.706.495.106.242.232.487.4.688.314.374.372.723.256 1.229-.253 1.097-.943 1.914-1.598 2.748-.225.287-.584.558-1.04.573-.203.007-.4.139-.603.196-.254.072-.512.127-.768.189m76.536-.083c-.343-.773.237-1.202.506-1.732.193-.38.41-.747.6-1.128.046-.094.022-.221.042-.331.035-.19.052-.389.126-.564.17-.4.406-.453.703-.15.253.258.57.441.74.802.103.217.384.399.625.491.499.191.62.624.732 1.043.144.534.064 1.077-.058 1.615-.075.33-.25.535-.587.547-.606.023-1.22.23-1.817-.06-.034-.016-.077-.014-.115-.02-.269-.041-.55-.047-.803-.135-.252-.087-.476-.256-.694-.379m-26.023-7.503c-.013.198.007.409-.048.597-.156.53-.249 1.082-.61 1.541-.146.184-.16.466-.278.679-.204.369-.44.72-.669 1.076-.259.403-.52.805-.79 1.202-.062.092-.159.16-.292.292-.154-.465-.106-.897-.06-1.288.08-.67.24-1.338.446-1.98.132-.413.408-.778.622-1.163.018-.034.047-.086.073-.087.67-.026.916-.803 1.606-.869m-28.283-.247c.012.31.04.616.026.92-.007.145-.09.287-.144.428-.073.194-.152.387-.227.58-.04.105-.048.26-.123.306-.38.238-.778.447-1.202.684-.25-.578-.042-1.06.131-1.48.196-.475.57-.876.856-1.315.157-.24.353-.279.683-.123M48.478 24.825c-.064-.15-.13-.302-.193-.453.077-.016.155-.03.233-.045l.172.46-.212.038"/></g></svg>